<svg width="48" height="48" viewBox="0 0 48 48" fill="none" xmlns="http://www.w3.org/2000/svg">
<g clip-path="url(#clip0_14_38)">
<path d="M35.88 35.88C32.4612 38.486 28.2982 39.9297 24 40C10 40 2 24 2 24C4.48778 19.3638 7.93827 15.3132 12.12 12.12M19.8 8.48C21.1767 8.15776 22.5861 7.99668 24 8C38 8 46 24 46 24C44.786 26.2712 43.3381 28.4095 41.68 30.38M28.24 28.24C27.6907 28.8295 27.0283 29.3023 26.2923 29.6302C25.5563 29.9582 24.7618 30.1345 23.9562 30.1487C23.1506 30.1629 22.3503 30.0148 21.6032 29.713C20.8561 29.4112 20.1774 28.9621 19.6077 28.3923C19.0379 27.8226 18.5888 27.1439 18.287 26.3968C17.9852 25.6497 17.8371 24.8494 17.8513 24.0438C17.8655 23.2382 18.0418 22.4437 18.3698 21.7077C18.6977 20.9717 19.1705 20.3093 19.76 19.76M2 2L46 46" stroke="#1E1E1E" stroke-width="4" stroke-linecap="round" stroke-linejoin="round"/>
</g>
<defs>
<clipPath id="clip0_14_38">
<rect width="48" height="48" fill="white"/>
</clipPath>
</defs>
</svg>
