<svg width="25" height="24" viewBox="0 0 25 24" fill="none" xmlns="http://www.w3.org/2000/svg">
<g clip-path="url(#clip0_1_40)">
<path d="M2.5 3H19.5C20.0304 3 20.5391 3.21071 20.9142 3.58579C21.2893 3.96086 21.5 4.46957 21.5 5V9H19.5V5H2.5V19H19.5V15H21.5V19C21.5 19.5304 21.2893 20.0391 20.9142 20.4142C20.5391 20.7893 20.0304 21 19.5 21H2.5C1.96957 21 1.46086 20.7893 1.08579 20.4142C0.710714 20.0391 0.5 19.5304 0.5 19V5C0.5 4.46957 0.710714 3.96086 1.08579 3.58579C1.46086 3.21071 1.96957 3 2.5 3ZM17.5 15V13H24.5V11H17.5V9L13.5 12L17.5 15ZM4.5 13H11.5V11H4.5V13ZM4.5 9H11.5V7H4.5V9ZM4.5 17H8.5V15H4.5V17Z" fill="white"/>
</g>
<defs>
<clipPath id="clip0_1_40">
<rect width="24" height="24" fill="white" transform="translate(0.5)"/>
</clipPath>
</defs>
</svg>
