<svg width="25" height="24" viewBox="0 0 25 24" fill="none" xmlns="http://www.w3.org/2000/svg">
<g clip-path="url(#clip0_1_32)">
<path d="M19.5 15.59L18.09 17L14.5 13.41L10.91 17L9.5 15.59L13.09 12L9.5 8.41L10.91 7L14.5 10.59L18.09 7L19.5 8.41L15.91 12L19.5 15.59ZM22.5 3C23.0304 3 23.5391 3.21071 23.9142 3.58579C24.2893 3.96086 24.5 4.46957 24.5 5V19C24.5 19.5304 24.2893 20.0391 23.9142 20.4142C23.5391 20.7893 23.0304 21 22.5 21H7.5C6.81 21 6.27 20.64 5.91 20.11L0.5 12L5.91 3.88C6.27 3.35 6.81 3 7.5 3H22.5ZM22.5 5H7.5L2.78 12L7.5 19H22.5V5Z" fill="white"/>
</g>
<defs>
<clipPath id="clip0_1_32">
<rect width="24" height="24" fill="white" transform="translate(0.5)"/>
</clipPath>
</defs>
</svg>
