<svg width="25" height="24" viewBox="0 0 25 24" fill="none" xmlns="http://www.w3.org/2000/svg">
<path d="M24.6973 15.9999V20.9999C24.6973 21.7955 24.3812 22.5586 23.8186 23.1212C23.256 23.6838 22.4929 23.9999 21.6973 23.9999H16.6973C15.2944 23.9985 13.9165 23.6281 12.7019 22.926C11.4873 22.224 10.4787 21.2148 9.77727 19.9999C10.5311 19.9945 11.2824 19.9114 12.0193 19.7519C12.5804 20.4535 13.2923 21.0199 14.1021 21.4091C14.9118 21.7982 15.7988 22.0001 16.6973 21.9999H21.6973C21.9625 21.9999 22.2168 21.8945 22.4044 21.707C22.5919 21.5195 22.6973 21.2651 22.6973 20.9999V15.9999C22.697 15.1011 22.4945 14.2139 22.1046 13.4041C21.7148 12.5943 21.1476 11.8826 20.4453 11.3219C20.6061 10.5852 20.6906 9.8339 20.6973 9.07989C21.9122 9.78134 22.9213 10.79 23.6234 12.0045C24.3255 13.2191 24.6958 14.597 24.6973 15.9999ZM18.6743 9.65089C18.7678 8.36253 18.5829 7.06913 18.1321 5.85859C17.6813 4.64804 16.9753 3.54871 16.0618 2.63531C15.1484 1.7219 14.0491 1.01582 12.8386 0.565046C11.628 0.114271 10.3346 -0.0706368 9.04627 0.0228889C6.76318 0.283621 4.65419 1.37006 3.11644 3.07763C1.57869 4.7852 0.718293 6.99606 0.697266 9.29389L0.697266 14.3339C0.697266 16.8659 2.20427 17.9999 3.69727 17.9999H9.39727C11.6961 17.9801 13.9083 17.1203 15.6171 15.5824C17.3258 14.0446 18.4132 11.9349 18.6743 9.65089ZM14.6473 4.05089C15.3572 4.76239 15.906 5.61809 16.2566 6.56008C16.6072 7.50207 16.7513 8.50837 16.6793 9.51089C16.4658 11.2946 15.6078 12.9387 14.2666 14.1338C12.9254 15.3289 11.1937 15.9926 9.39727 15.9999H3.69727C2.76927 15.9999 2.69727 14.7249 2.69727 14.3339V9.29389C2.7056 7.49826 3.36991 5.76759 4.56518 4.42757C5.76045 3.08754 7.40426 2.23056 9.18727 2.01789C9.35327 2.00589 9.51927 1.99989 9.68527 1.99989C10.6065 1.99903 11.5189 2.17973 12.3703 2.53165C13.2218 2.88357 13.9955 3.39982 14.6473 4.05089Z" fill="white"/>
</svg>
