<svg width="28" height="32" viewBox="0 0 28 32" fill="none" xmlns="http://www.w3.org/2000/svg">
<path d="M9.84391 1.58364C10.2321 1.36815 10.938 1.04492 11.4204 0.8833C12.1851 0.61394 12.5145 0.587004 13.8321 0.61394C15.1145 0.654344 15.5027 0.708216 16.2439 1.00451C16.7263 1.19306 17.4674 1.58364 17.891 1.86647C18.3145 2.14929 19.0321 2.80923 19.491 3.32101C19.938 3.84626 20.5145 4.66781 20.7616 5.15266C21.0086 5.63751 21.338 6.48599 21.5027 7.03818C21.6674 7.59037 21.8321 8.45232 21.9498 9.86647L23.0674 9.87993C23.6792 9.8934 24.3145 9.93381 24.4792 9.98768C24.6439 10.0415 24.891 10.2974 25.0439 10.5399C25.2086 10.8362 25.3027 11.2133 25.3027 11.55C25.3027 11.8463 25.1969 12.2907 25.0674 12.5197C24.938 12.7621 24.7145 13.0314 24.5733 13.1123C24.4204 13.2065 24.2674 13.3412 24.2204 13.422C24.1576 13.5208 24.1263 13.5118 24.1263 13.3951C24.1263 13.2739 23.7851 13.2335 21.4792 13.2335L20.9498 14.4052C20.6557 15.0517 20.4321 15.6173 20.4557 15.6846C20.4674 15.7385 20.4321 15.7924 20.3616 15.7924C20.291 15.7924 19.9027 16.1964 18.7145 17.6106L21.091 17.6375C22.4086 17.6644 23.5027 17.6375 23.538 17.5702C23.5733 17.5163 23.738 17.4759 23.9145 17.4759C24.0792 17.4759 24.1969 17.5028 24.1733 17.5432C24.138 17.5836 24.2792 17.6644 24.491 17.7453C24.7263 17.8261 24.9498 18.055 25.091 18.3513C25.2674 18.7284 25.3027 18.9843 25.1851 20.3715H25.8086C26.3145 20.3715 26.4674 20.4254 26.7145 20.7217C26.9733 21.018 27.0086 21.1931 27.0086 22.0146C27.0086 22.8766 26.9851 22.9843 26.3616 23.6038H15.6321C7.44391 23.6038 4.78509 23.6442 4.43215 23.7789C4.18509 23.8597 3.82038 24.1426 3.64391 24.3715C3.45568 24.6139 3.25568 25.0449 3.19685 25.3143C3.12626 25.5971 3.1145 26.0415 3.16156 26.2974C3.20862 26.5937 3.40862 26.9843 3.7145 27.3345C4.1145 27.8059 4.27921 27.9001 4.83215 27.9809C5.18509 28.0213 6.90273 28.0483 11.7851 27.9809L11.7145 28.6005L8.04391 28.587C4.66744 28.587 4.32626 28.5601 3.92626 28.3311C3.67921 28.1964 3.36156 27.9271 3.23215 27.752C3.09097 27.5904 2.87921 27.2267 2.77332 26.9708C2.65568 26.7015 2.56156 26.2166 2.57332 25.8261C2.57332 25.449 2.65568 24.9372 2.74979 24.6813C2.84391 24.4254 3.12626 23.9944 3.37332 23.7251C3.69097 23.4018 4.02038 23.1998 4.45568 23.0921C4.90273 22.9708 7.97332 22.9304 15.6321 22.9304C25.4204 22.9439 26.1969 22.9304 26.3616 22.715C26.4674 22.5803 26.5263 22.257 26.5263 21.9338C26.5145 21.5298 26.4321 21.3143 26.2321 21.1392C25.9616 20.9102 25.4204 20.8968 4.06744 20.9776L3.30273 21.4086C2.87921 21.6375 2.30273 22.0954 2.02038 22.4187C1.73803 22.7284 1.37332 23.2941 1.23215 23.6712C1.07921 24.0348 0.902734 24.6813 0.832146 25.0853C0.749793 25.5971 0.749793 26.055 0.832146 26.5668C0.902734 26.9708 1.07921 27.6038 1.23215 27.9809C1.39685 28.3446 1.72626 28.8968 1.98509 29.1931C2.23215 29.4894 2.70273 29.8934 3.02038 30.0954C3.33803 30.284 3.9145 30.5129 4.30273 30.5937C4.77332 30.7015 8.44391 30.7419 15.538 30.7419C25.491 30.7554 26.0792 30.7419 26.2792 30.5129C26.3851 30.3783 26.5145 30.0415 26.538 29.7587C26.5851 29.4086 26.538 29.1796 26.3969 28.991C26.1851 28.7352 26.0439 28.7217 15.538 28.7217V28.0483H20.891C24.2204 28.0483 26.338 28.1022 26.4792 28.183C26.6086 28.2638 26.7969 28.4927 26.891 28.7217C26.9851 28.9506 27.0792 29.2873 27.091 29.4894C27.1027 29.7048 27.0674 30.0415 27.0321 30.2705C26.9851 30.4995 26.8321 30.8092 26.4204 31.2806H15.3027C6.45568 31.2806 4.07921 31.2537 3.65568 31.1055C3.36156 31.0112 2.89097 30.7688 2.59685 30.5803C2.30273 30.3917 1.82038 29.9203 1.5145 29.5432C1.19685 29.1661 0.808617 28.5062 0.632146 28.0752C0.338028 27.3884 0.302734 27.1594 0.302734 25.8261C0.302734 24.4793 0.338028 24.2772 0.632146 23.5634C0.808617 23.1459 1.20862 22.4725 1.52626 22.082C1.84391 21.7048 2.36156 21.22 2.66744 21.018C2.98509 20.8294 3.49097 20.6005 3.80862 20.5197C4.1145 20.4389 4.36156 20.3311 4.36156 20.2638C4.36156 20.2099 4.16156 20.0213 3.92626 19.8328C3.69097 19.6442 3.32626 19.2537 3.1145 18.9574C2.90273 18.6611 2.58509 18.055 2.40862 17.6106C2.12626 16.9102 2.07921 16.6274 2.07921 15.4557C2.06744 14.1628 2.09097 14.055 2.49097 13.0988C2.78509 12.3985 3.12626 11.8867 3.54979 11.4288C3.90273 11.0651 4.46744 10.6207 5.42038 10.1358V9.43549C5.42038 9.04492 5.52626 8.23684 5.65568 7.64424C5.79685 7.05165 6.07921 6.17623 6.30273 5.69138C6.52626 5.20653 6.96156 4.45232 7.27921 4.00788C7.58509 3.56343 8.13803 2.93044 8.50273 2.59374C8.86744 2.25704 9.46744 1.81259 9.84391 1.58364Z" fill="white"/>
<path d="M23.5498 13.5424C23.6204 13.4212 23.6086 13.3539 23.5145 13.3135H23.5027C23.4321 13.2731 23.538 13.2461 23.738 13.2461C23.9498 13.2327 24.1262 13.3 24.1262 13.3673C24.1262 13.4481 24.0439 13.9061 23.938 14.4178C23.8321 14.9566 23.7851 15.5357 23.8321 15.8589C23.8792 16.1552 23.9733 16.667 24.2086 17.6098L23.9145 17.5424C23.7106 17.4975 23.5576 17.3314 23.4557 17.0441C23.3733 16.8017 23.3027 16.4246 23.3027 15.7916H21.9145C21.1615 15.7916 20.5027 15.7512 20.4557 15.6973C20.4086 15.63 20.4439 15.4279 20.538 15.2259C20.6321 15.0104 20.738 14.8488 20.7733 14.8488C20.8086 14.8488 20.8086 14.9027 20.7733 14.9835C20.738 15.0643 21.1615 15.1047 23.2439 15.0508L23.338 14.3774C23.3968 14.0138 23.4909 13.6232 23.5498 13.5424Z" fill="white"/>
<path d="M22.4321 17.6367C21.7851 17.6636 20.6674 17.6636 19.9615 17.6367C19.2439 17.6232 19.7733 17.5963 21.138 17.5963C22.4909 17.5963 23.0792 17.6232 22.4321 17.6367Z" fill="white"/>
<path d="M25.1027 23.9263C25.2204 23.8589 25.2086 23.805 25.0792 23.7242C24.9615 23.6434 25.0439 23.603 25.7851 23.603L25.5851 24.1687C25.4674 24.5323 25.3968 25.1384 25.3968 25.8252C25.3968 26.5121 25.4674 27.1182 25.7851 28.0475H25.4321C25.2321 28.0475 25.1027 27.9936 25.138 27.9128C25.1733 27.832 25.138 27.7512 25.0792 27.7108C25.0086 27.6704 24.9027 27.3067 24.7262 26.1619H15.5498V27.0374C15.5498 27.6434 15.5968 27.9128 15.6909 27.9263C15.8086 27.9263 15.8086 27.9397 15.6909 27.9936C15.5968 28.034 15.5498 28.3572 15.5498 28.9902C15.5498 29.704 15.5027 29.9465 15.3733 30.0003C15.2792 30.0407 14.8674 29.7983 14.4556 29.4616C14.0556 29.1249 13.7027 28.8555 13.6674 28.8555C13.6321 28.8555 13.2792 29.1249 12.8674 29.4616C12.4674 29.7983 12.0556 30.0407 11.9615 30.0003C11.8439 29.9599 11.7851 29.731 11.7733 29.3C11.7733 28.9364 11.7733 28.0879 11.7851 26.1619L9.04388 26.135C6.39683 26.0946 6.31447 26.0811 6.31447 25.8252C6.31447 25.5562 6.39664 25.5559 24.6646 25.4888L24.7262 25.4885L24.8439 24.7478C24.9027 24.3438 25.0321 23.9667 25.1027 23.9263Z" fill="white"/>
<path d="M9.96153 28.6805C9.05565 28.7074 7.51447 28.7074 6.54977 28.6805C5.5733 28.667 6.31447 28.6401 8.19683 28.6401C10.0674 28.6401 10.8674 28.667 9.96153 28.6805Z" fill="white"/>
<path d="M20.7851 31.3741C17.8674 31.401 13.138 31.401 10.2556 31.3741C7.3733 31.3606 9.76153 31.3471 15.5498 31.3471C21.338 31.3471 23.6909 31.3606 20.7851 31.3741Z" fill="white"/>
<path fill-rule="evenodd" clip-rule="evenodd" d="M13.5955 1.26001C14.2778 1.26001 15.0896 1.34082 15.5367 1.46203C15.9602 1.56977 16.7249 1.91994 17.2425 2.22971C17.9014 2.62028 18.4543 3.09166 19.0778 3.80546C19.7602 4.58661 20.0778 5.07146 20.4543 5.96035C20.7249 6.59334 21.0308 7.46876 21.1249 7.91321C21.219 8.35765 21.3014 9.30041 21.3014 10.0008C21.3014 10.7011 21.219 11.6438 21.1249 12.0883C21.0308 12.5327 20.7249 13.4082 20.4543 14.0412C20.0778 14.9166 19.7602 15.4284 19.0778 16.2095C18.3955 16.9906 17.9484 17.3543 17.1837 17.7853C16.6308 18.095 15.8425 18.4452 15.419 18.5664C14.8543 18.728 14.3131 18.7684 13.3602 18.728C12.4896 18.6876 11.819 18.5664 11.3014 18.3779C10.8778 18.2162 10.1955 17.8661 9.77194 17.5832C9.34841 17.3004 8.64253 16.6405 8.18371 16.1287C7.58371 15.4418 7.23077 14.8762 6.86606 14.0412C6.58371 13.4082 6.27783 12.5327 6.18371 12.0883C6.08959 11.6438 6.00724 10.7011 6.00724 10.0008C6.00724 9.30041 6.08959 8.35765 6.18371 7.91321C6.27783 7.46876 6.58371 6.59334 6.8543 5.96035C7.23077 5.08493 7.54841 4.57314 8.23077 3.792C8.91312 3.02432 9.37194 2.63375 10.1249 2.20277C10.6778 1.89301 11.419 1.55631 11.7719 1.44856C12.1249 1.35429 12.9484 1.26001 13.5955 1.26001ZM21.9131 10.5395H23.0778C24.0896 10.5395 24.2778 10.5799 24.4778 10.8088C24.619 10.9704 24.7131 11.2533 24.7131 11.5092C24.7131 11.7516 24.6308 12.0883 24.5367 12.2499C24.3719 12.5462 24.2778 12.5597 23.0072 12.5597C21.6661 12.5597 21.6543 12.5597 21.7131 12.2499C21.7484 12.0883 21.8072 11.6304 21.8425 11.2398L21.9131 10.5395ZM5.28959 10.9435C5.40724 10.9435 5.48959 11.2398 5.71312 12.8425L5.24253 13.2735C4.99547 13.5159 4.67783 13.9873 4.56018 14.3105C4.39547 14.728 4.33665 15.1321 4.37194 15.6034C4.40332 16.0614 4.53665 16.5058 4.77194 16.9368C5.00724 17.3812 5.28959 17.7045 5.6543 17.9065C6.13665 18.2028 6.32489 18.2297 7.8543 18.2297C9.43077 18.2297 9.57194 18.2432 10.1484 18.5799C10.4896 18.7684 11.1602 19.0378 11.6543 19.1859C12.2072 19.3476 12.9484 19.4418 13.6543 19.4418C14.3602 19.4418 15.0896 19.3476 15.6543 19.1859C16.1367 19.0378 16.8072 18.7684 17.7719 18.2162L21.0778 18.2566C24.219 18.2836 24.3837 18.297 24.5484 18.5529C24.6425 18.7011 24.7131 19.0109 24.7131 19.2263C24.7131 19.4553 24.6072 19.7785 24.2425 20.2364L5.59547 20.1691L4.84253 19.6977C4.419 19.4418 3.90136 18.9839 3.67783 18.6876C3.4543 18.3913 3.12489 17.8257 2.96018 17.4082C2.70136 16.7886 2.6543 16.4923 2.6543 15.4553C2.6543 14.4452 2.70136 14.1354 2.94841 13.5024C3.12489 13.0984 3.44253 12.5327 3.6543 12.2364C3.87783 11.9536 4.30136 11.5361 4.59547 11.3341C4.87783 11.1186 5.19547 10.9435 5.28959 10.9435ZM5.94841 13.489L6.28959 14.2701C6.46606 14.7011 6.8543 15.388 7.12489 15.792C7.39547 16.2095 7.84253 16.7617 8.59547 17.5428H7.47783C6.6543 17.5428 6.24253 17.489 5.92489 17.3139C5.67783 17.1792 5.38371 16.856 5.23077 16.5327C5.07783 16.2364 4.94841 15.7785 4.94841 15.4957C4.94841 15.2129 5.019 14.7954 5.10136 14.5529C5.18371 14.3105 5.40724 13.9738 5.59547 13.7987L5.94841 13.489ZM12.3719 26.1758H14.9602V29.0041L14.3719 28.5327C14.0425 28.2634 13.7249 28.0614 13.6661 28.0614C13.5955 28.0614 13.3484 28.223 13.1014 28.4385C12.8543 28.6405 12.5955 28.856 12.5131 28.9098C12.3955 28.9772 12.3719 28.6674 12.3719 27.59V26.1758Z" fill="#0A0C32"/>
<path d="M8.24638 17.6382C8.02285 17.6651 7.59932 17.6651 7.3052 17.6382C7.01109 17.6113 7.19932 17.5843 7.71697 17.5843C8.23462 17.5843 8.46991 17.6113 8.24638 17.6382Z" fill="white"/>
<path d="M19.717 20.3318C17.3287 20.3587 13.4346 20.3587 11.0699 20.3318C8.7052 20.3183 10.6699 20.3049 15.4229 20.3049C20.1758 20.3049 22.1052 20.3183 19.717 20.3318Z" fill="white"/>
<path d="M12.0817 4.23752C12.2346 3.98163 12.5405 3.67186 12.7523 3.52371C12.9758 3.37557 13.3523 3.26782 13.6581 3.26782C13.9758 3.26782 14.3405 3.37557 14.564 3.53718C14.7758 3.68533 15.117 4.06244 15.317 4.3722C15.517 4.69543 15.7287 5.086 15.7876 5.24762C15.8817 5.53045 15.9758 5.55738 16.6817 5.55738C17.2229 5.55738 17.6464 5.65166 17.9758 5.82675C18.2581 5.97489 18.5876 6.28466 18.717 6.52708C18.8699 6.82338 18.9523 7.20048 18.9523 7.64493C18.9523 8.0759 18.8464 8.56075 18.6581 9.01866C18.4934 9.40924 18.317 9.75941 18.2464 9.79981C18.1758 9.84021 18.3052 10.2443 18.5405 10.7426C18.8581 11.4294 18.9523 11.7796 18.9523 12.3183C18.9523 12.7942 18.8738 13.1758 18.717 13.4631C18.5876 13.719 18.2581 14.0288 17.9876 14.1769C17.6464 14.352 17.2229 14.4463 15.8934 14.4463L15.5405 15.187C15.3405 15.5911 14.9876 16.0894 14.7523 16.2914C14.3993 16.6012 14.1993 16.6685 13.6581 16.6685C13.117 16.6685 12.917 16.6012 12.564 16.3049C12.3287 16.0894 11.9758 15.5911 11.4229 14.4463H10.6229C10.0934 14.4463 9.66991 14.352 9.3405 14.1769C9.05814 14.0288 8.72873 13.719 8.59932 13.4766C8.44246 13.1803 8.36403 12.7987 8.36403 12.3318C8.36403 11.7796 8.45814 11.4294 8.77579 10.7426C9.01109 10.2443 9.1405 9.84021 9.06991 9.79981C9.01109 9.75941 8.82285 9.40924 8.65814 9.03213C8.46991 8.56075 8.36403 8.0759 8.36403 7.64493C8.36403 7.20048 8.44638 6.82338 8.59932 6.54055C8.72873 6.28466 9.05814 5.97489 9.3405 5.82675C9.66991 5.65166 10.0934 5.55738 10.6229 5.55738C11.4111 5.55738 11.4229 5.54392 11.6111 5.12641C11.717 4.88398 11.9287 4.47994 12.0817 4.23752Z" fill="white"/>
<path d="M12.3826 5.00367C12.5944 4.6535 12.865 4.2764 13.0061 4.15519C13.1355 4.03397 13.4414 3.9397 13.6767 3.9397C13.9944 3.9397 14.2297 4.04744 14.4885 4.30333C14.7003 4.51882 14.9591 4.89593 15.2767 5.6232L13.712 6.20232L11.9944 5.6232L12.3826 5.00367Z" fill="#0A0C32"/>
<path d="M9.06496 6.90266C9.12378 6.75451 9.35908 6.53902 9.55908 6.43128H9.57084C9.77084 6.32354 10.2297 6.24273 10.5708 6.22926C11.1003 6.22926 11.1708 6.2562 11.112 6.47168C11.0767 6.5929 10.9826 7.02387 10.912 7.42791C10.7944 8.04744 10.6885 8.24946 10.1826 8.73431C9.86496 9.05754 9.55908 9.31344 9.51202 9.3269C9.45319 9.3269 9.31202 9.07101 9.18261 8.76125C9.05319 8.43801 8.94731 7.95317 8.94731 7.68381C8.94731 7.40098 9.00614 7.05081 9.06496 6.90266Z" fill="#0A0C32"/>
<path d="M16.3591 7.37404C16.3003 7.0104 16.2061 6.5929 16.1591 6.47168C16.0885 6.2562 16.1473 6.22926 16.6767 6.22926C17.0179 6.22926 17.4767 6.32354 17.7003 6.43128C17.9238 6.53902 18.1591 6.75451 18.2297 6.90266C18.3003 7.05081 18.3473 7.41445 18.3473 7.71074C18.3473 8.00704 18.265 8.45148 18.1591 8.69391C18.0532 8.92286 17.9238 9.19222 17.865 9.25956C17.7944 9.34037 17.5238 9.15182 17.1238 8.72084C16.5944 8.15519 16.465 7.9397 16.3591 7.37404Z" fill="#0A0C32"/>
<path d="M11.5944 7.0104C11.6414 6.76798 11.6885 6.52556 11.7238 6.47168C11.7473 6.40434 11.865 6.36394 11.9708 6.36394C12.0767 6.36394 12.2885 6.39088 12.4414 6.43128C12.5826 6.47168 12.7003 6.56596 12.7003 6.6333C12.7003 6.70064 12.4532 6.91613 12.1473 7.10468C11.8297 7.29323 11.5708 7.44138 11.5591 7.44138C11.5355 7.44138 11.5591 7.23936 11.5944 7.0104Z" fill="#0A0C32"/>
<path d="M14.5591 6.64677C14.5355 6.57943 14.6297 6.48515 14.7591 6.45822C14.8885 6.41781 15.1238 6.40434 15.2767 6.40434C15.512 6.43128 15.5944 6.53902 15.665 6.90266C15.7238 7.15855 15.7473 7.38751 15.7355 7.41445C15.712 7.42791 15.4532 7.29323 15.1473 7.10468C14.8297 6.91613 14.5708 6.71411 14.5591 6.64677Z" fill="#0A0C32"/>
<path d="M11.5591 8.35721C11.712 8.18212 12.2061 7.81849 12.6532 7.54913C13.1003 7.2663 13.5355 7.03734 13.6179 7.03734C13.6885 7.03734 14.0414 7.19896 14.3708 7.38751C14.712 7.58953 15.2179 7.92623 15.9944 8.51882V11.4818L15.312 11.9936C14.9473 12.2629 14.4061 12.6131 13.6061 13.0306L12.7238 12.4919C12.2414 12.1956 11.7238 11.8185 11.5708 11.6569C11.312 11.374 11.2885 11.2394 11.2885 10.0003C11.2885 8.76125 11.312 8.62657 11.5591 8.35721Z" fill="#0A0C32"/>
<path d="M9.93555 10.0003L10.2767 9.59626C10.465 9.38078 10.6414 9.19222 10.665 9.19222C10.6885 9.19222 10.7003 9.56933 10.7003 10.8757L9.93555 10.0003Z" fill="#0A0C32"/>
<path d="M16.5826 10.8757L16.5944 10.0272C16.5944 9.23263 16.6061 9.19222 16.8297 9.3269C16.9473 9.39424 17.112 9.59626 17.1826 9.77135C17.2885 10.0272 17.265 10.1215 16.5826 10.8757Z" fill="#0A0C32"/>
<path d="M9.12378 11.3875C9.2179 11.1047 9.37084 10.7949 9.44143 10.7006C9.54731 10.566 9.70025 10.6602 10.1708 11.199C10.6532 11.7511 10.7826 12.007 10.9238 12.6535C11.0061 13.0845 11.1003 13.5155 11.1238 13.6097C11.1591 13.7175 10.9944 13.7713 10.5826 13.7713C10.2532 13.7713 9.86496 13.704 9.70025 13.6367C9.53555 13.5693 9.30025 13.3808 9.17084 13.2326C9.01398 13.0531 8.93555 12.7837 8.93555 12.4245C8.93555 12.1283 9.0179 11.6569 9.12378 11.3875Z" fill="#0A0C32"/>
<path d="M16.3708 12.6266C16.465 12.1013 16.6179 11.805 17.0767 11.2528C17.4061 10.8623 17.712 10.5794 17.7708 10.6064C17.8297 10.6468 17.9826 10.9296 18.112 11.2528C18.2414 11.5626 18.3473 12.0744 18.3473 12.3976C18.3473 12.7882 18.2767 13.0441 18.112 13.2326C17.9826 13.3808 17.7473 13.5693 17.5826 13.6367C17.4179 13.7175 17.0179 13.7713 16.7003 13.7713C16.1944 13.7713 16.1238 13.7444 16.1826 13.5424C16.2179 13.4077 16.3003 13.0037 16.3708 12.6266Z" fill="#0A0C32"/>
<path d="M11.665 13.2192C11.5826 12.9633 11.5238 12.7208 11.5238 12.667C11.5238 12.5996 11.5473 12.5592 11.5826 12.5592C11.6179 12.5592 11.9238 12.7343 12.2532 12.9498C12.5944 13.1653 12.8297 13.3673 12.7591 13.4077C12.6885 13.4481 12.4532 13.5155 12.2297 13.5693C11.8414 13.6636 11.8061 13.6367 11.665 13.2192Z" fill="#0A0C32"/>
<path d="M14.5826 13.3404C14.5826 13.273 14.8061 13.0845 15.0767 12.9094C15.3591 12.7343 15.6179 12.5862 15.665 12.5727C15.7238 12.5592 15.7591 12.5996 15.7591 12.667C15.7591 12.7208 15.712 12.9633 15.6414 13.2057C15.5826 13.4346 15.4885 13.6367 15.4297 13.6367C15.3826 13.6367 15.1708 13.5963 14.9591 13.5424C14.7473 13.4751 14.5826 13.3942 14.5826 13.3404Z" fill="#0A0C32"/>
<path d="M11.9826 14.3774L12.7238 14.0946C13.1355 13.933 13.512 13.7983 13.5826 13.7983C13.6532 13.7848 14.065 13.9195 15.3003 14.3774L14.9591 14.9835C14.7826 15.3202 14.4885 15.6973 14.312 15.832C14.1355 15.9532 13.8297 16.0609 13.6414 16.0609C13.4414 16.0609 13.1473 15.9532 12.9708 15.832C12.7944 15.6973 12.5003 15.3202 11.9826 14.3774Z" fill="#0A0C32"/>
</svg>
