<svg width="28" height="25" viewBox="0 0 28 25" fill="none" xmlns="http://www.w3.org/2000/svg">
<path d="M6.70605 24.1904H21.251C23.0557 24.1904 24.1191 23.127 24.1191 21.4082V11.7832L25.1182 12.6104C25.4404 12.8896 25.8271 13.083 26.2139 13.083C27.041 13.083 27.6211 12.5674 27.6211 11.7725C27.6211 11.3428 27.4277 10.9346 27.0625 10.6338L24.1191 8.16309V3.38281C24.1191 2.87793 23.7969 2.55566 23.3027 2.55566H21.3262C20.8213 2.55566 20.4883 2.87793 20.4883 3.38281V5.10156L15.8906 1.24512C14.752 0.289062 13.2695 0.289062 12.1309 1.24512L0.9375 10.6445C0.572266 10.9453 0.378906 11.3643 0.378906 11.7617C0.378906 12.5137 0.926758 13.083 1.78613 13.083C2.18359 13.083 2.57031 12.8896 2.89258 12.6104L3.83789 11.8262V21.4082C3.83789 23.127 4.90137 24.1904 6.70605 24.1904ZM17.0723 14.6299C17.0723 14.1143 16.7393 13.7812 16.2236 13.7812H11.7764C11.2607 13.7812 10.917 14.1143 10.917 14.6299V21.4189H7.6084C6.96387 21.4189 6.60938 21.0537 6.60938 20.4092V9.49512L13.4199 3.79102C13.7959 3.45801 14.2148 3.45801 14.6123 3.79102L21.3477 9.45215V20.4092C21.3477 21.0537 20.9932 21.4189 20.3594 21.4189H17.0723V14.6299Z" fill="white"/>
</svg>
