<svg width="20" height="21" viewBox="0 0 20 21" fill="none" xmlns="http://www.w3.org/2000/svg">
<path d="M9.98841 10.5449C12.6525 10.5449 14.8009 8.22461 14.8009 5.3457C14.8009 2.53125 12.6417 0.253906 9.98841 0.253906C7.34583 0.253906 5.17591 2.54199 5.18665 5.35645C5.19739 8.22461 7.32435 10.5449 9.98841 10.5449ZM9.98841 8.26758C8.64564 8.26758 7.52845 7.05371 7.51771 5.3457C7.50696 3.71289 8.65638 2.52051 9.98841 2.52051C11.3419 2.52051 12.4591 3.70215 12.4591 5.3457C12.4591 7.04297 11.3419 8.26758 9.98841 8.26758ZM3.38196 20.6104H16.5949C18.5607 20.6104 19.5382 19.9443 19.5382 18.5479C19.5382 15.3896 15.6388 11.6621 9.98841 11.6621C4.32728 11.6621 0.438604 15.3896 0.438604 18.5479C0.438604 19.9443 1.41614 20.6104 3.38196 20.6104ZM3.29603 18.3438C3.09192 18.3438 3.02747 18.2578 3.02747 18.0967C3.02747 16.6572 5.56263 13.9287 9.98841 13.9287C14.4142 13.9287 16.9493 16.6572 16.9493 18.0967C16.9493 18.2578 16.8849 18.3438 16.67 18.3438H3.29603Z" fill="white"/>
</svg>
