<svg width="40" height="32" viewBox="0 0 40 32" fill="none" xmlns="http://www.w3.org/2000/svg">
<path d="M11.2918 1.22663C9.97754 1.51463 8.93042 2.02663 8.22522 2.69863C7.84056 3.0613 7.78713 3.3173 8.03289 3.51996C8.17179 3.6373 8.25727 3.61596 8.52439 3.42396C9.35782 2.8053 9.84932 2.52796 10.5438 2.27197L11.3025 1.99463L12.9052 3.58396C13.7814 4.45863 14.4973 5.2373 14.4973 5.31196C14.4973 5.66396 14.0164 6.7413 13.5784 7.3813C13.0121 8.2133 12.2855 8.83196 11.3559 9.2693C10.0523 9.88797 10.1806 9.9413 8.3748 8.12796L6.78275 6.53863L7.07124 5.7493C7.23152 5.31196 7.37042 4.81063 7.38111 4.63997C7.39179 4.36263 7.34905 4.31996 7.12467 4.31996C6.90028 4.31996 6.80412 4.4373 6.51563 5.0133C6.02412 5.99463 5.79974 7.2533 5.87453 8.57596C5.93864 9.70663 6.0348 9.95196 6.63316 10.3893C6.87891 10.5813 7.11398 10.6133 8.19316 10.6453C10.4797 10.7093 12.0397 10.144 13.4822 8.6933C14.9354 7.2533 15.5017 5.69596 15.4375 3.4133C15.4055 2.04797 15.32 1.82397 14.6896 1.35463C14.3156 1.0773 12.3069 1.00263 11.2918 1.22663ZM14.3797 2.12263C14.5934 2.33597 14.7537 3.19997 14.6896 3.81863L14.6575 4.17063L13.5356 3.03997L12.4137 1.91996H13.3006C14.0164 1.91996 14.2088 1.95197 14.3797 2.12263ZM8.59919 9.89863C7.97946 9.96263 7.11398 9.80263 6.90028 9.5893C6.72932 9.41863 6.69727 9.22663 6.69727 8.51197V7.62663L7.81919 8.74663L8.95179 9.86663L8.59919 9.89863Z" fill="#0073FA"/>
<path d="M26.8597 1.17334C26.0049 1.32268 24.9151 1.68534 24.5945 1.93068C24.1992 2.25068 24.0069 2.75201 24.0069 3.44534C24.0069 4.03201 24.1351 4.26668 24.4449 4.26668C24.7121 4.26668 24.7976 4.08534 24.8617 3.37068C24.9258 2.58134 25.1074 2.43201 26.3469 2.12268C28.0885 1.68534 31.1658 2.01601 31.6466 2.69868C31.9137 3.07201 31.871 6.26134 31.5932 7.15734C31.294 8.13868 30.7384 8.78934 29.563 9.57868C28.6976 10.1653 28.5159 10.2507 28.206 10.208C27.7786 10.1333 26.3148 9.13068 25.8233 8.56534C25.3104 7.98934 24.9471 7.10401 24.8617 6.27201C24.7976 5.50401 24.68 5.29068 24.3808 5.35468C24.0282 5.41868 23.9534 5.69601 24.0817 6.54934C24.306 8.14934 25.0219 9.17334 26.7315 10.3467C27.4581 10.8373 27.6611 10.9333 28.174 10.9653C28.8792 11.0187 29.1463 10.9013 30.2576 10.08C31.2406 9.35468 31.7534 8.76801 32.1702 7.90401L32.5014 7.20001L32.5334 4.90668C32.5548 2.79468 32.5441 2.58134 32.3518 2.28268C31.8176 1.41868 28.9219 0.832009 26.8597 1.17334Z" fill="#0073FA"/>
<path d="M26.2828 3.98932C25.834 4.19199 25.6417 4.55465 25.866 4.77865C26.005 4.92798 26.0797 4.92798 26.4644 4.79998C26.817 4.68265 26.9559 4.68265 27.1162 4.77865C27.6718 5.13065 28.0885 4.66132 27.6184 4.19199C27.2978 3.88265 26.7315 3.78665 26.2828 3.98932Z" fill="#0073FA"/>
<path d="M29.2425 4.02132C28.9433 4.18132 28.8685 4.27732 28.8685 4.53332C28.8685 4.78932 28.9219 4.86399 29.1249 4.88532C29.2638 4.90666 29.4241 4.87466 29.4882 4.81066C29.5523 4.74666 29.7019 4.69332 29.8301 4.69332C29.9584 4.69332 30.108 4.74666 30.1721 4.81066C30.2362 4.87466 30.3964 4.90666 30.5353 4.88532C30.7277 4.86399 30.8025 4.77866 30.8238 4.56532C30.888 4.01066 29.9156 3.67999 29.2425 4.02132Z" fill="#0073FA"/>
<path d="M11.6337 4.39468C11.3345 4.70402 11.2597 4.72535 11.0781 4.60802C10.7896 4.43735 10.5973 4.44802 10.4263 4.65068C10.3088 4.78935 10.3088 4.87468 10.4584 5.12002C10.6186 5.39735 10.6186 5.42935 10.4049 5.63202C10.2019 5.84535 10.1699 5.84535 9.89207 5.68535C9.64632 5.53602 9.57152 5.53602 9.43262 5.64268C9.2296 5.81335 9.21892 6.01602 9.38988 6.29335C9.50741 6.47468 9.47536 6.54935 9.1655 6.86935C8.86632 7.17868 8.83426 7.26402 8.93043 7.45602C9.10139 7.76535 9.35782 7.73335 9.75317 7.34935C10.0737 7.04002 10.1058 7.02935 10.3515 7.18935C10.5759 7.33868 10.64 7.33868 10.8217 7.21068C11.0033 7.07202 11.014 7.01868 10.8965 6.70935C10.7789 6.40002 10.7789 6.32535 10.9499 6.16535C11.1102 5.99468 11.1849 5.99468 11.4948 6.11202C11.8047 6.22935 11.8581 6.21868 11.997 6.03735C12.1252 5.85602 12.1252 5.79202 11.9756 5.56802C11.8154 5.32268 11.826 5.29068 12.1359 4.97068C12.5206 4.57602 12.5526 4.32002 12.2641 4.16002C11.9863 4.02135 12.0291 4.00002 11.6337 4.39468Z" fill="#0073FA"/>
<path d="M18.6644 4.43731C18.5148 4.45864 18.0447 4.53331 17.6173 4.60798C16.848 4.72531 16.5274 4.88531 16.5274 5.16265C16.5274 5.51464 16.8052 5.56798 17.7027 5.39731C18.1836 5.30131 19.0063 5.22664 19.5192 5.22664C20.0321 5.22664 20.8548 5.30131 21.3356 5.39731C22.0088 5.52531 22.2438 5.52531 22.3614 5.42931C22.7354 5.11998 22.4575 4.81065 21.6455 4.63998C20.9189 4.47998 19.1025 4.36265 18.6644 4.43731Z" fill="#0073FA"/>
<path d="M26.4216 7.02934C25.8233 7.69068 27.7893 8.57601 29.0715 8.21334C29.6271 8.06401 30.311 7.53068 30.311 7.25334C30.311 6.85868 29.9584 6.81601 29.4562 7.14668C28.6548 7.68001 27.8748 7.65868 27.1055 7.09334C26.6674 6.77334 26.6567 6.77334 26.4216 7.02934Z" fill="#0073FA"/>
<path d="M15.3627 9.344C14.8392 9.71733 14.8178 9.90933 14.8178 14.72C14.8178 19.5307 14.8392 19.7227 15.3627 20.096C15.5871 20.2453 16.0786 20.2667 19.5192 20.2667C22.9597 20.2667 23.4512 20.2453 23.6756 20.096C24.1778 19.744 24.2205 19.4347 24.2205 16.032C24.2205 14.24 24.1778 12.6933 24.1137 12.48C24.0389 12.224 23.6115 11.712 22.7033 10.7947C21.9767 10.0693 21.2608 9.408 21.1005 9.32266C20.8762 9.20533 20.2564 9.17333 18.2156 9.17333C15.9825 9.17333 15.5764 9.19466 15.3627 9.344ZM20.4808 11.04C20.4808 12.1173 20.4915 12.1707 20.7907 12.5013C21.1005 12.8427 21.1112 12.8427 22.2332 12.8853L23.3658 12.928V16.096C23.3658 18.4213 23.3337 19.296 23.2375 19.392C23.0559 19.5733 15.9825 19.5733 15.8008 19.392C15.6192 19.2107 15.6192 10.2293 15.8008 10.048C15.897 9.952 16.5808 9.92 18.2049 9.92H20.4808V11.04ZM22.0729 12.032C21.2822 12.0747 21.2288 12.0213 21.2288 11.1467V10.5173L21.9767 11.2533L22.7353 12L22.0729 12.032Z" fill="#0073FA"/>
<path d="M16.7091 12.128C16.5595 12.2667 16.6449 12.6933 16.8373 12.8C16.9548 12.8533 17.5104 12.9067 18.0767 12.9067C19.1666 12.9067 19.5192 12.8107 19.5192 12.5013C19.5192 12.1173 19.2948 12.0533 18.0233 12.0533C17.3395 12.0533 16.7411 12.0853 16.7091 12.128Z" fill="#0073FA"/>
<path d="M16.7732 13.8347C16.6022 13.8987 16.5915 14.3147 16.7625 14.4853C16.9441 14.6667 22.0942 14.6667 22.2759 14.4853C22.4575 14.304 22.4362 13.8987 22.2332 13.824C22.0301 13.7493 16.9655 13.7493 16.7732 13.8347Z" fill="#0073FA"/>
<path d="M16.7625 15.5947C16.5808 15.776 16.6022 16.1813 16.8052 16.256C17.0189 16.3413 22.0195 16.3413 22.2332 16.256C22.4362 16.1813 22.4576 15.776 22.2759 15.5947C22.0943 15.4133 16.9441 15.4133 16.7625 15.5947Z" fill="#0073FA"/>
<path d="M16.677 17.4293C16.6449 17.5147 16.6342 17.6747 16.6556 17.7813C16.6877 17.9627 16.88 17.9733 19.5192 17.9733H22.3507V17.6533V17.3333L19.5406 17.3013C17.1685 17.28 16.7304 17.3013 16.677 17.4293Z" fill="#0073FA"/>
<path d="M9.657 11.8933C9.49673 12.0533 9.32577 12.864 9.20824 14.0907C9.13344 14.784 9.28303 16.448 9.48604 17.1947C9.60358 17.6427 9.93481 17.824 10.1913 17.5787C10.3302 17.44 10.3195 17.312 10.1806 16.5333C9.96687 15.4133 9.96687 14.0267 10.1806 12.9067C10.3088 12.2347 10.3088 12 10.2126 11.8827C10.0523 11.6907 9.84933 11.6907 9.657 11.8933Z" fill="#0073FA"/>
<path d="M28.8257 11.8827C28.7296 12 28.7296 12.2347 28.8578 12.9067C28.954 13.3867 29.0288 14.208 29.0288 14.72C29.0288 15.232 28.954 16.0533 28.8578 16.5333C28.6868 17.4293 28.7403 17.7067 29.0929 17.7067C29.3707 17.7067 29.531 17.3867 29.6805 16.5653C29.9584 15.0187 29.7767 12.288 29.3814 11.8827C29.189 11.6907 28.986 11.6907 28.8257 11.8827Z" fill="#0073FA"/>
<path d="M6.41945 18.9227L6.05616 19.2853V23.4347C6.05616 27.9787 6.04548 27.872 6.69726 28.2133C6.9537 28.3413 7.57342 28.3733 10.2019 28.3733C14.3156 28.3733 13.9844 28.608 13.9416 25.6107C13.9096 23.9787 13.8882 23.744 13.7279 23.6373C13.589 23.552 13.4822 23.552 13.354 23.6373C13.1937 23.7333 13.151 23.9467 13.1296 24.7893L13.0975 25.8133H10.1164C8.48164 25.8133 7.07123 25.8453 6.97507 25.8773C6.82548 25.9413 6.80411 25.6213 6.80411 22.7947C6.80411 20.0747 6.82548 19.616 6.97507 19.4773C7.11397 19.328 7.55205 19.3067 10.1271 19.3067H13.1082V20.736C13.1082 21.8987 13.1403 22.208 13.2792 22.336C13.4929 22.5493 13.589 22.5493 13.8027 22.336C13.9523 22.1867 13.9737 21.9307 13.9416 20.5653C13.9096 19.04 13.8989 18.9547 13.6531 18.7627C13.4181 18.5707 13.1937 18.56 10.0951 18.56H6.78274L6.41945 18.9227ZM13.1082 27.0933V27.52H10.0844C6.97507 27.52 6.80411 27.4987 6.80411 27.0933C6.80411 26.688 6.97507 26.6667 10.0844 26.6667H13.1082V27.0933Z" fill="#0073FA"/>
<path d="M27.0628 18.784C25.8447 19.072 24.4663 20.2453 23.8786 21.5146C23.2162 22.912 23.3551 24.7893 24.2099 26.112C26.4003 29.4826 31.4543 28.9386 32.886 25.184C33.8584 22.624 32.4052 19.6906 29.766 18.8693C29.0715 18.656 27.8 18.6133 27.0628 18.784ZM27.9817 19.7866C28.003 19.9466 28.0992 20 28.3343 20C28.6014 20 28.6655 19.9573 28.6869 19.7226C28.7189 19.4453 28.7296 19.4453 29.1677 19.5413C30.717 19.8826 32.0633 21.248 32.2984 22.7093C32.3625 23.104 32.3411 23.1466 32.1595 23.1466C31.6145 23.1466 31.5932 23.7973 32.1274 23.872C32.3411 23.904 32.3625 23.9573 32.2984 24.2986C32.2022 24.9386 31.6252 25.9733 31.1017 26.4533C30.5781 26.9333 29.6912 27.392 29.0929 27.488C28.7723 27.5413 28.7189 27.52 28.6869 27.3066C28.6121 26.7733 27.9603 26.7946 27.9603 27.3386C27.9603 27.52 27.9175 27.5413 27.5222 27.4773C26.0584 27.2426 24.6907 25.8986 24.3488 24.352C24.2526 23.9146 24.2526 23.904 24.5304 23.872C24.7548 23.8506 24.8082 23.7866 24.8082 23.52C24.8082 23.2746 24.7548 23.2 24.5411 23.1466C24.3167 23.0933 24.2847 23.0293 24.306 22.7733C24.3702 22.2186 24.9365 21.152 25.428 20.6506C25.9515 20.1386 26.7529 19.68 27.394 19.5306C27.8428 19.4346 27.9175 19.4666 27.9817 19.7866Z" fill="#0073FA"/>
<path d="M28.0137 21.1413C27.9817 21.2267 27.971 21.856 27.9817 22.5493L28.0137 23.808L28.7937 24.2347C29.4241 24.5867 29.5951 24.64 29.7233 24.5333C30.0439 24.2667 29.9156 23.9573 29.328 23.616L28.7617 23.296L28.7082 22.1867L28.6548 21.0667L28.3556 21.0347C28.1847 21.0133 28.0458 21.056 28.0137 21.1413Z" fill="#0073FA"/>
<path d="M8.62055 20.2346C8.17178 20.3946 8.0863 20.5973 8.0863 21.4613C8.0863 22.7093 8.10767 22.72 10.0951 22.72C11.9649 22.72 12.0397 22.6773 12.1252 21.7173C12.1893 20.9173 12.0077 20.416 11.591 20.2773C11.2597 20.16 8.91973 20.128 8.62055 20.2346ZM11.2918 21.4933V21.984L10.0951 21.952L8.88767 21.92L8.85562 21.4613L8.82356 21.0133H10.0523H11.2918V21.4933Z" fill="#0073FA"/>
<path d="M16.6343 24.0533C16.4206 24.3093 16.6129 24.6293 17.0403 24.736C17.9913 24.992 19.5085 25.088 20.5663 24.9706C21.1326 24.896 21.7844 24.8 21.9981 24.736C22.4469 24.6186 22.6285 24.288 22.3828 24.032C22.2439 23.8933 22.1156 23.904 21.3356 24.0426C20.2244 24.256 18.814 24.256 17.7348 24.0533C16.7198 23.8613 16.7945 23.8613 16.6343 24.0533Z" fill="#0073FA"/>
</svg>
