<svg width="30" height="35" viewBox="0 0 30 35" fill="none" xmlns="http://www.w3.org/2000/svg">
<path d="M0 35V17.5V0H30V35H0Z" fill="#F7F7F7"/>
<path fill-rule="evenodd" clip-rule="evenodd" d="M14.6026 3.6311C18.5662 3.6311 18.6358 3.64119 19.0728 3.86309C19.3311 3.99422 19.6391 4.26655 19.8179 4.51871C19.9768 4.7507 20.1556 4.94234 20.2152 4.94234C20.2748 4.94234 20.9603 5.01295 21.755 5.08355C22.7682 5.18442 23.3146 5.28528 23.5927 5.42649C23.8112 5.53744 24.1391 5.74926 24.3179 5.91064C24.5066 6.07203 24.7649 6.43514 24.894 6.70747C25.0728 7.08067 25.1622 7.5043 25.2318 8.32131C25.2814 8.92649 25.3708 10.2882 25.4305 11.3472C25.4801 12.4063 25.5298 14.9885 25.5298 17.0965C25.5298 19.2046 25.4801 21.7968 25.4305 22.8458C25.3708 23.8948 25.2914 25.2363 25.2417 25.8213C25.1821 26.5677 25.0828 27.0418 24.9238 27.4251C24.7748 27.768 24.5165 28.121 24.2384 28.3631C23.9901 28.5749 23.5927 28.817 23.3444 28.8977C23.096 28.9784 21.9834 29.1196 20.8609 29.2204C19.3311 29.3516 17.7715 29.3919 14.6026 29.3919C11.4338 29.3919 9.87416 29.3516 8.34436 29.2204C7.22184 29.1196 6.10926 28.9784 5.86092 28.8977C5.61257 28.817 5.21522 28.5749 4.96688 28.3631C4.68873 28.121 4.43045 27.768 4.28145 27.4251C4.0927 26.9812 4.01323 26.5374 3.89403 25.0648C3.78476 23.7435 3.74502 21.6758 3.73509 17.5C3.72515 14.3328 3.75496 11.2161 3.80462 10.5605C3.86423 9.47116 3.89403 9.3703 4.10264 9.26943C4.28145 9.16857 4.35098 9.18874 4.47019 9.35012C4.58939 9.51151 4.60926 9.7435 4.54966 10.6513C4.51986 11.2565 4.45032 13.3141 4.42052 15.2305C4.37085 17.4092 4.39072 19.6887 4.46025 21.3328C4.51986 22.7752 4.61919 24.5706 4.6788 25.317C4.72847 26.0634 4.81787 26.8199 4.86754 26.9812C4.91721 27.1426 5.10595 27.4351 5.28476 27.6268C5.46356 27.8083 5.75164 28.0302 5.91058 28.1109C6.07946 28.2017 6.89403 28.3328 7.84767 28.4236C9.10926 28.5547 10.6689 28.585 14.6026 28.585C18.5364 28.585 20.096 28.5547 21.3576 28.4236C22.3112 28.3328 23.1159 28.2017 23.2947 28.1109C23.4636 28.0302 23.7218 27.8285 23.8808 27.6772C24.0397 27.5158 24.2185 27.2435 24.2881 27.0821C24.3576 26.9207 24.4669 26.1239 24.5265 25.317C24.5861 24.5101 24.6854 22.8155 24.7351 21.5346C24.7848 20.2536 24.8344 18.2666 24.8344 17.0965C24.8344 15.9265 24.7848 13.9395 24.7351 12.6585C24.6854 11.3775 24.5861 9.70315 24.5364 8.92649C24.447 7.82707 24.3775 7.41352 24.2086 7.07058C24.0894 6.81842 23.8311 6.49566 23.6424 6.33427C23.4437 6.17289 23.0761 6.01151 22.798 5.96107C22.5298 5.91064 21.8245 5.84004 20.1656 5.74926V6.50574L21.3079 6.60661C22.3708 6.69739 22.4603 6.72765 22.7483 7.01007C23.0066 7.26223 23.0662 7.42361 23.1457 8.01871C23.1954 8.402 23.2848 9.7435 23.3543 10.9942C23.4238 12.4467 23.4437 14.9279 23.4139 17.9034C23.3841 20.4553 23.3046 23.1787 23.245 23.9553C23.1755 24.732 23.0662 25.4784 22.9967 25.6196C22.9271 25.7608 22.8079 25.9323 22.7384 25.9928C22.6589 26.0634 22.4205 26.1642 22.202 26.2147C21.9536 26.2752 21.7351 26.2752 21.6357 26.2147C21.5364 26.1642 21.4569 26.0129 21.4569 25.8717C21.4569 25.7305 21.5265 25.5994 21.6059 25.5691C21.6854 25.5389 21.8444 25.5187 21.9536 25.5187C22.0629 25.5187 22.2119 25.4178 22.2914 25.2867C22.3808 25.1455 22.4702 24.4395 22.5397 23.1988C22.6093 22.17 22.6887 19.8804 22.7185 18.1052C22.7483 16.1484 22.7285 13.8285 22.6589 12.2046C22.5894 10.732 22.5099 9.11814 22.4702 8.60373C22.4305 8.0994 22.3609 7.63543 22.3013 7.57491C22.2417 7.51439 21.7152 7.42361 20.0165 7.25214L19.7185 7.62534C19.5497 7.82707 19.2516 8.07923 19.053 8.1801C18.7053 8.36165 18.3675 8.37174 14.6026 8.37174C10.8377 8.37174 10.5 8.36165 10.1523 8.1801C9.95363 8.07923 9.65562 7.82707 9.18873 7.25214L8.09601 7.36309C7.49005 7.42361 6.95363 7.51439 6.90396 7.57491C6.84436 7.63543 6.77482 8.0994 6.73509 8.60373C6.69535 9.11814 6.61588 10.732 6.54635 12.2046C6.47681 13.8285 6.45694 16.1484 6.48674 18.1052C6.51655 19.8804 6.59602 22.17 6.66555 23.1988C6.72515 24.3083 6.82449 25.1455 6.89403 25.2666C6.99337 25.4279 7.18211 25.4885 7.75827 25.549C8.16555 25.5893 9.13906 25.67 9.93376 25.7305C10.7285 25.781 12.8742 25.8213 14.702 25.8213C16.5298 25.8213 18.5463 25.781 19.1722 25.7305C19.8079 25.6801 20.394 25.6902 20.4834 25.7305C20.5828 25.781 20.6622 25.902 20.6622 25.9928C20.6722 26.0936 20.6126 26.2248 20.543 26.2954C20.4636 26.366 19.6788 26.4568 18.5265 26.5173C17.4934 26.5778 15.7252 26.6282 14.6026 26.6282C13.4801 26.6282 11.7417 26.5778 10.7285 26.5274C9.71522 26.4668 8.42383 26.3761 7.84767 26.3155C7.27151 26.2651 6.70529 26.1441 6.57615 26.0634C6.45694 25.9928 6.298 25.8011 6.21853 25.6397C6.13906 25.4885 6.02979 24.732 5.96025 23.9553C5.90065 23.1787 5.82118 20.4553 5.79138 17.9034C5.76158 14.9279 5.78145 12.4467 5.85098 10.9942C5.92052 9.7435 6.00992 8.402 6.05959 8.01871C6.13906 7.42361 6.19866 7.26223 6.45694 7.01007C6.74502 6.72765 6.83443 6.69739 9.03972 6.50574V6.12246C9.03972 5.76943 9.01986 5.74926 8.71191 5.74926C8.54304 5.74926 7.89734 5.79969 7.30131 5.86021C6.63575 5.93082 6.06953 6.04177 5.86092 6.15272C5.67217 6.25358 5.4139 6.44522 5.29469 6.57635C5.17549 6.69739 5.00661 6.97981 4.92714 7.18154C4.83774 7.39335 4.7682 7.67577 4.7682 7.81698C4.7682 7.95819 4.71853 8.15992 4.66886 8.27087C4.61919 8.38182 4.49006 8.4726 4.39072 8.4726C4.30131 8.48269 4.16224 8.42217 4.0927 8.35156C4.0033 8.26079 3.98343 8.06914 4.02317 7.71612C4.05297 7.4337 4.19204 6.97981 4.32118 6.70747C4.44039 6.42505 4.69866 6.07203 4.88741 5.91064C5.06621 5.74926 5.39403 5.53744 5.61257 5.42649C5.89072 5.28528 6.43707 5.18442 7.45032 5.08355C8.24502 5.01295 8.94039 4.94234 8.99006 4.94234C9.03972 4.94234 9.22847 4.7507 9.39734 4.50863C9.57615 4.25646 9.88409 3.97404 10.1424 3.85301C10.5695 3.64119 10.6689 3.6311 14.6026 3.6311V3.6311ZM11.3742 9.23917C11.702 9.26943 12.2185 9.40056 12.5165 9.54177C12.8146 9.68298 13.2715 10.0057 13.5298 10.268C13.798 10.5302 14.1159 10.9942 14.255 11.2968C14.3841 11.5994 14.5232 12.1441 14.5629 12.5072C14.6026 13.0216 14.5728 13.304 14.4139 13.8184C14.2947 14.1815 14.0563 14.6657 13.8775 14.8876C13.7086 15.1196 13.3808 15.4423 13.1622 15.6239C12.9437 15.7954 12.4768 16.0274 12.1192 16.1484C11.6126 16.3098 11.3344 16.34 10.8278 16.2997C10.4603 16.2593 9.9437 16.1282 9.63575 15.9769C9.33774 15.8357 8.88078 15.5129 8.62251 15.2507C8.34436 14.9784 8.03641 14.5144 7.87747 14.1714C7.65893 13.6772 7.60926 13.415 7.60926 12.7593C7.60926 12.1138 7.65893 11.8415 7.8576 11.3977C7.99668 11.0951 8.28476 10.6412 8.51323 10.389C8.73178 10.1369 9.12913 9.8141 9.39734 9.6628C9.66555 9.51151 10.0828 9.34004 10.3311 9.28961C10.5795 9.23917 11.0463 9.20891 11.3742 9.23917ZM20.5232 10.2882C20.6622 10.2882 20.7814 10.3588 20.8112 10.4596C20.841 10.5605 20.4338 11.5792 19.8675 12.8098C19.3112 14 18.7947 15.0288 18.6954 15.0994C18.6059 15.17 18.4867 15.2003 18.4271 15.1801C18.3675 15.1599 17.9603 14.6657 17.5132 14.1008C17.0761 13.5259 16.6788 12.9812 16.649 12.8804C16.6192 12.7896 16.649 12.6383 16.7185 12.5576C16.7781 12.4668 16.9073 12.3962 16.9867 12.3962C17.0662 12.3962 17.4238 12.7694 17.7814 13.2132C18.1391 13.6671 18.4569 14 18.4967 13.9495C18.5364 13.9092 18.904 13.1225 19.3212 12.2046C19.7384 11.2867 20.1258 10.4798 20.1854 10.4092C20.245 10.3487 20.394 10.2882 20.5232 10.2882ZM11.0265 17.2478C11.3245 17.2478 11.8013 17.3083 12.0695 17.389C12.3477 17.4798 12.7848 17.6916 13.053 17.8732C13.3311 18.0547 13.6987 18.4078 13.8775 18.6599C14.0563 18.9121 14.3046 19.4265 14.4139 19.8199C14.5828 20.3645 14.6126 20.657 14.5629 21.1311C14.5331 21.474 14.3742 21.9985 14.2152 22.3415C14.0364 22.7248 13.7285 23.1282 13.4007 23.4308C13.0828 23.7132 12.6358 24.0057 12.3179 24.1167C11.9603 24.2478 11.5232 24.3184 11.0761 24.3184C10.6887 24.3184 10.1821 24.2478 9.93376 24.157C9.68542 24.0663 9.30794 23.8645 9.08939 23.7132C8.87085 23.5619 8.54304 23.2593 8.36423 23.0374C8.18542 22.8256 7.94701 22.3919 7.8278 22.0893C7.6788 21.6959 7.61919 21.3127 7.61919 20.7781C7.60926 20.1628 7.65893 19.9106 7.88741 19.4164C8.03641 19.0836 8.27482 18.67 8.4139 18.5086C8.55297 18.3372 8.85098 18.0648 9.07946 17.9034C9.298 17.732 9.70529 17.5202 9.98343 17.4294C10.2516 17.3285 10.7285 17.2478 11.0265 17.2478ZM17.0265 19.4668C17.1556 19.4668 17.4934 19.7291 18.5265 20.7781L19.1722 20.1124C19.5993 19.6787 19.8775 19.4668 20.0066 19.487C20.1059 19.5072 20.245 19.598 20.3046 19.6887C20.394 19.84 20.3046 19.9812 19.0232 21.2723L19.6987 21.9885C20.0662 22.3717 20.3642 22.7349 20.3642 22.7954C20.3642 22.8559 20.2947 22.9668 20.2053 23.0475C20.1258 23.1282 20.0066 23.1988 19.9569 23.1988C19.9073 23.1988 19.5497 22.8962 18.4669 21.8372L17.7814 22.5432C17.1954 23.1383 17.0563 23.2291 16.9073 23.1383C16.8179 23.0778 16.7285 22.9366 16.7086 22.8357C16.6887 22.7046 16.8973 22.4222 17.9801 21.3328L17.3344 20.6772C16.9768 20.3141 16.6788 19.9308 16.6689 19.8098C16.6589 19.6988 16.6887 19.5677 16.7384 19.5374C16.7881 19.4971 16.9172 19.4668 17.0265 19.4668Z" fill="#0073FA"/>
<path d="M9.84436 5.94093C9.85429 5.15419 9.86423 5.11384 10.1821 4.78099L10.5099 4.43805H18.6755L19.0232 4.79108C19.3609 5.13401 19.3709 5.16427 19.3709 5.95102C19.3709 6.42508 19.3112 6.86888 19.2318 7.04035C19.1622 7.19165 18.9338 7.39338 18.7351 7.49425C18.4172 7.64554 17.9901 7.66571 14.6026 7.66571C11.2152 7.66571 10.7881 7.64554 10.4702 7.49425C10.2715 7.39338 10.043 7.19165 9.9735 7.04035C9.8841 6.8588 9.83443 6.44525 9.84436 5.94093Z" fill="#F7F7F7"/>
<path d="M9.149 10.8026C9.33774 10.611 9.70529 10.3487 9.98343 10.2176C10.3212 10.0562 10.6689 9.9856 11.0761 9.9856C11.553 9.9856 11.8013 10.0461 12.3179 10.3084C12.7649 10.5404 13.053 10.7723 13.2616 11.0749C13.4205 11.317 13.6093 11.66 13.6788 11.8314C13.7384 12.013 13.798 12.4063 13.798 12.7089C13.8079 13.0115 13.7384 13.4957 13.6391 13.768C13.5298 14.0908 13.3013 14.4438 13.0232 14.7363C12.7351 15.0187 12.3874 15.2507 12.0695 15.3617C11.7914 15.4625 11.3245 15.5331 11.0265 15.5231C10.7285 15.5231 10.341 15.4625 10.1622 15.402C9.99337 15.3314 9.65562 15.1398 9.41721 14.9784C9.11919 14.7666 8.89072 14.4741 8.66224 14.0202C8.40396 13.4957 8.34436 13.2435 8.34436 12.7594C8.34436 12.3458 8.4139 11.9928 8.57284 11.6499C8.70198 11.3775 8.96025 10.9942 9.149 10.8026Z" fill="#F7F7F7"/>
<path d="M9.68542 18.3977C9.90396 18.2666 10.3013 18.1153 10.5695 18.0749C10.8377 18.0346 11.2848 18.0346 11.5629 18.0749C11.841 18.1153 12.2682 18.2767 12.5066 18.428C12.755 18.5893 13.1026 18.902 13.2814 19.134C13.4603 19.3761 13.649 19.7392 13.7086 19.9409C13.7583 20.1527 13.8079 20.5764 13.8079 20.879C13.8079 21.2421 13.7285 21.6052 13.5795 21.938C13.4503 22.2104 13.192 22.5937 13.0033 22.7853C12.8146 22.9669 12.4867 23.219 12.2682 23.33C12.0497 23.4409 11.6225 23.5519 11.3245 23.5821C10.947 23.6124 10.6093 23.5721 10.2318 23.451C9.90396 23.3401 9.51655 23.098 9.24833 22.8559C9.00992 22.6239 8.73178 22.2608 8.61257 22.0389C8.5033 21.817 8.39403 21.3631 8.36423 21.0303C8.33443 20.6268 8.37416 20.2637 8.48343 19.9208C8.5629 19.6383 8.78145 19.2349 8.96025 19.0231C9.13906 18.8112 9.46688 18.5288 9.68542 18.3977Z" fill="#F7F7F7"/>
<path d="M11.3841 5.20464C11.4735 5.10377 11.6325 4.98273 11.7517 4.9323C11.8709 4.89196 12.0894 4.85161 12.2484 4.85161C12.3974 4.84152 12.6457 4.91213 12.8146 4.99282C12.9835 5.07351 13.1821 5.28533 13.2616 5.44671C13.3411 5.60809 13.4106 5.86026 13.4106 6.00147C13.4106 6.14268 13.3411 6.38475 13.2616 6.55622C13.1821 6.72769 13.0133 6.92942 12.8941 7.01011C12.7649 7.0908 12.4768 7.16141 12.2484 7.16141C11.9404 7.16141 11.7417 7.0908 11.5232 6.90925C11.3543 6.76804 11.1854 6.50579 11.1457 6.33432C11.096 6.15276 11.096 5.86026 11.1457 5.69887C11.1954 5.53749 11.3047 5.31559 11.3841 5.20464Z" fill="#0073FA"/>
<path d="M15.9437 5.44671C16.0232 5.28533 16.2119 5.07351 16.3709 4.99282C16.5398 4.89196 16.798 4.85161 17.0861 4.88187C17.3742 4.91213 17.6126 5.01299 17.7616 5.16429C17.8907 5.29541 18.0298 5.53749 18.0696 5.69887C18.1093 5.86026 18.1093 6.14268 18.0696 6.30406C18.0199 6.47553 17.851 6.72769 17.6821 6.88907C17.4537 7.0908 17.2848 7.16141 16.9669 7.16141C16.7285 7.16141 16.4404 7.0908 16.3212 7.01011C16.1921 6.92942 16.0232 6.72769 15.9437 6.55622C15.8643 6.38475 15.7947 6.14268 15.7947 6.00147C15.7947 5.86026 15.8643 5.60809 15.9437 5.44671Z" fill="#0073FA"/>
<path d="M9.5265 11.8214C9.51657 11.6398 9.57617 11.3977 9.63578 11.2868C9.71525 11.1456 9.83445 11.0951 10.0133 11.1153C10.1921 11.1355 10.3212 11.2363 10.4007 11.428C10.5 11.6196 10.5 11.8012 10.4305 12.0533C10.3643 12.2887 10.2583 12.4265 10.1126 12.4669C9.96359 12.4971 9.82452 12.4568 9.70531 12.3358C9.60597 12.2349 9.5265 12.0029 9.5265 11.8214Z" fill="#0073FA"/>
<path d="M11.7119 11.8415C11.7119 11.6499 11.7517 11.3977 11.8113 11.2868C11.8808 11.1758 12.0298 11.0951 12.1689 11.0951C12.3179 11.0951 12.457 11.1758 12.5166 11.2969C12.5662 11.4078 12.6159 11.6499 12.6159 11.8314C12.6159 12.0029 12.5364 12.2349 12.4371 12.3358C12.3477 12.4366 12.2086 12.5173 12.149 12.5072C12.0795 12.5072 11.9503 12.4366 11.8709 12.3559C11.7914 12.2752 11.7219 12.0433 11.7119 11.8415Z" fill="#0073FA"/>
<path d="M9.61591 13.4453C9.60597 13.3141 9.68545 13.183 9.79472 13.1225C9.89405 13.062 9.99339 13.0116 10.0133 13.0116C10.0232 13.0116 10.2119 13.1931 10.4305 13.415C10.6788 13.6672 10.9172 13.8185 11.0762 13.8185C11.2351 13.8185 11.4636 13.6773 11.702 13.415C12.0596 13.0317 12.0994 13.0216 12.3278 13.1528C12.457 13.2234 12.5762 13.3343 12.5861 13.3747C12.606 13.4251 12.5265 13.6167 12.4172 13.7983C12.308 13.9698 12.0696 14.2118 11.9007 14.3228C11.6921 14.4539 11.3941 14.5245 11.106 14.5245C10.8378 14.5245 10.5 14.4539 10.3311 14.3732C10.1623 14.2925 9.94372 14.1009 9.83445 13.9496C9.71525 13.7882 9.62584 13.5663 9.61591 13.4453Z" fill="#0073FA"/>
<path d="M9.51657 19.8804C9.50664 19.6585 9.56624 19.4669 9.68545 19.3458C9.78478 19.245 9.96359 19.1643 10.0729 19.1845C10.1921 19.2046 10.3311 19.3559 10.4106 19.5677C10.5298 19.8703 10.5298 19.9712 10.4106 20.2234C10.3311 20.4251 10.1921 20.536 10.0331 20.5562C9.87419 20.5764 9.73511 20.526 9.65564 20.4049C9.58611 20.3041 9.5265 20.0721 9.51657 19.8804Z" fill="#0073FA"/>
<path d="M11.7119 19.83C11.7119 19.6283 11.7815 19.4165 11.8709 19.3257C11.9603 19.2349 12.0994 19.1643 12.1788 19.1643C12.2583 19.1643 12.3874 19.2349 12.4669 19.3156C12.5464 19.3963 12.6159 19.6283 12.6159 19.8199C12.6159 20.0116 12.5762 20.2637 12.5166 20.3747C12.457 20.4957 12.3179 20.5764 12.1689 20.5764C12.0199 20.5764 11.8808 20.4957 11.8212 20.3747C11.7715 20.2637 11.7219 20.0216 11.7119 19.83Z" fill="#0073FA"/>
<path d="M9.82452 21.7969C9.93379 21.6456 10.1722 21.4337 10.351 21.343C10.5596 21.232 10.8477 21.1816 11.1755 21.2118C11.4835 21.232 11.8013 21.3228 12 21.464C12.1689 21.585 12.3874 21.817 12.4669 21.9885C12.5464 22.16 12.596 22.3617 12.5662 22.4424C12.5364 22.5231 12.4172 22.6239 12.298 22.6542C12.1192 22.7046 12 22.634 11.7616 22.3314C11.4934 21.9986 11.3841 21.9381 11.0762 21.9381C10.7682 21.9381 10.649 22.0087 10.3709 22.3415C10.0927 22.6845 10.0133 22.7248 9.86425 22.634C9.76492 22.5735 9.67551 22.4222 9.66558 22.3012C9.64571 22.1902 9.72518 21.9582 9.82452 21.7969Z" fill="#0073FA"/>
<path d="M11.8112 6.06196C11.8112 5.951 11.8808 5.78962 11.9702 5.70893C12.0596 5.61815 12.149 5.54755 12.1788 5.54755C12.1987 5.54755 12.3079 5.59798 12.4172 5.64841C12.5265 5.69884 12.6159 5.85014 12.6159 5.97118C12.6258 6.1023 12.5563 6.27377 12.4669 6.35446C12.3377 6.4755 12.2682 6.48559 12.0695 6.37464C11.9305 6.31412 11.8212 6.16282 11.8112 6.06196Z" fill="#F7F7F7"/>
<path d="M16.5695 5.98126C16.5596 5.86023 16.6391 5.71902 16.7483 5.6585C16.8477 5.59798 16.9669 5.54755 17.0066 5.54755C17.0563 5.54755 17.1556 5.61815 17.2351 5.69884C17.3146 5.77953 17.3841 5.94092 17.3841 6.05187C17.3841 6.16282 17.2748 6.31412 17.1358 6.37464C16.9371 6.48559 16.8675 6.4755 16.7384 6.35446C16.649 6.27377 16.5795 6.1023 16.5695 5.98126Z" fill="#F7F7F7"/>
</svg>
