<svg width="21" height="21" viewBox="0 0 21 21" fill="none" xmlns="http://www.w3.org/2000/svg">
<path d="M20 10.41V2C20 0.9 19.11 0 18 0H2C0.9 0 0 0.89 0 2V20L4 16H7.29C8.15 18.89 10.83 21 14 21C17.86 21 21 17.87 21 14C21 12.69 20.63 11.46 20 10.41ZM3.17 14L2 15.17V2H18V8.26C16.86 7.47 15.5 7 14 7C12.1 7 10.37 7.77 9.11 9H4V11H7.69C7.25 11.91 7 12.93 7 14H3.17ZM14 18.85C11.32 18.85 9.15 16.68 9.15 14C9.15 11.32 11.32 9.15 14 9.15C16.67 9.15 18.85 11.32 18.85 14C18.85 16.68 16.67 18.85 14 18.85ZM16 7H4V5H16V7ZM14.5 13.82L16.94 15.23L16.19 16.53L13 14.69V11H14.5V13.82Z" fill="#64B2FA"/>
</svg>
