<svg width="20" height="16" viewBox="0 0 20 16" fill="none" xmlns="http://www.w3.org/2000/svg">
<path d="M2.66668 15.3334C2.16251 15.3334 1.73091 15.1538 1.37189 14.7948C1.01286 14.4358 0.833344 14.0042 0.833344 13.5V2.50002C0.833344 1.99585 1.01286 1.56426 1.37189 1.20523C1.73091 0.846201 2.16251 0.666687 2.66668 0.666687H17.3333C17.8375 0.666687 18.2691 0.846201 18.6281 1.20523C18.9872 1.56426 19.1667 1.99585 19.1667 2.50002V13.5C19.1667 14.0042 18.9872 14.4358 18.6281 14.7948C18.2691 15.1538 17.8375 15.3334 17.3333 15.3334H2.66668ZM10 8.91669L2.66668 4.33335V13.5H17.3333V4.33335L10 8.91669ZM10 7.08335L17.3333 2.50002H2.66668L10 7.08335ZM2.66668 4.33335V2.50002V13.5V4.33335Z" fill="#64B2FA"/>
</svg>
