<svg width="28" height="31" viewBox="0 0 28 31" fill="none" xmlns="http://www.w3.org/2000/svg">
<path d="M10.1459 0.977924C10.5341 0.762436 11.24 0.439203 11.7224 0.277587C12.4871 0.0082269 12.8165 -0.0187091 14.1341 0.00822689C15.4165 0.0486309 15.8047 0.102503 16.5459 0.398799C17.0283 0.587351 17.7694 0.977924 18.193 1.26075C18.6165 1.54358 19.3342 2.20351 19.793 2.7153C20.24 3.24055 20.8165 4.0621 21.0636 4.54695C21.3106 5.0318 21.64 5.88028 21.8047 6.43247C21.9694 6.98466 22.1341 7.84661 22.2518 9.26075L23.3694 9.27422C23.9812 9.28769 24.6165 9.32809 24.7812 9.38196C24.9459 9.43584 25.193 9.69173 25.3459 9.93415C25.5106 10.2304 25.6047 10.6076 25.6047 10.9443C25.6047 11.2406 25.4989 11.685 25.3694 11.914C25.24 12.1564 25.0165 12.4257 24.8753 12.5065C24.7224 12.6008 24.5694 12.7355 24.5224 12.8163C24.4596 12.9151 24.4283 12.9061 24.4283 12.7894C24.4283 12.6682 24.0871 12.6278 21.7812 12.6278L21.2518 13.7995C20.9577 14.4459 20.7341 15.0116 20.7577 15.0789C20.7694 15.1328 20.7341 15.1867 20.6636 15.1867C20.593 15.1867 20.2047 15.5907 19.0165 17.0049L21.393 17.0318C22.7106 17.0587 23.8047 17.0318 23.84 16.9645C23.8753 16.9106 24.04 16.8702 24.2165 16.8702C24.3812 16.8702 24.4989 16.8971 24.4753 16.9375C24.44 16.9779 24.5812 17.0587 24.793 17.1395C25.0283 17.2203 25.2518 17.4493 25.393 17.7456C25.5694 18.1227 25.6047 18.3786 25.4871 19.7658H26.1106C26.6165 19.7658 26.7694 19.8197 27.0165 20.116C27.2753 20.4123 27.3106 20.5874 27.3106 21.4089C27.3106 22.2709 27.2871 22.3786 26.6636 22.9981H15.9341C7.74591 22.9981 5.08709 23.0385 4.73415 23.1732C4.48709 23.254 4.12238 23.5368 3.94591 23.7658C3.75768 24.0082 3.55768 24.4392 3.49885 24.7086C3.42827 24.9914 3.4165 25.4358 3.46356 25.6917C3.51062 25.988 3.71062 26.3786 4.0165 26.7288C4.4165 27.2001 4.58121 27.2944 5.13415 27.3752C5.48709 27.4156 7.20474 27.4426 12.0871 27.3752L12.0165 27.9948L8.34591 27.9813C4.96944 27.9813 4.62827 27.9544 4.22827 27.7254C3.98121 27.5907 3.66356 27.3214 3.53415 27.1463C3.39297 26.9847 3.18121 26.621 3.07532 26.3651C2.95768 26.0958 2.86356 25.6109 2.87532 25.2203C2.87532 24.8432 2.95768 24.3315 3.0518 24.0756C3.14591 23.8197 3.42827 23.3887 3.67532 23.1193C3.99297 22.7961 4.32238 22.5941 4.75768 22.4863C5.20474 22.3651 8.27533 22.3247 15.9341 22.3247C25.7224 22.3382 26.4989 22.3247 26.6636 22.1092C26.7694 21.9746 26.8283 21.6513 26.8283 21.3281C26.8165 20.9241 26.7341 20.7086 26.5341 20.5335C26.2636 20.3045 25.7224 20.2911 4.36944 20.3719L3.60474 20.8028C3.18121 21.0318 2.60474 21.4897 2.32238 21.8129C2.04003 22.1227 1.67532 22.6884 1.53415 23.0655C1.38121 23.4291 1.20474 24.0756 1.13415 24.4796C1.0518 24.9914 1.0518 25.4493 1.13415 25.9611C1.20474 26.3651 1.38121 26.9981 1.53415 27.3752C1.69885 27.7389 2.02827 28.2911 2.28709 28.5874C2.53415 28.8836 3.00474 29.2877 3.32238 29.4897C3.64003 29.6783 4.2165 29.9072 4.60474 29.988C5.07533 30.0958 8.74591 30.1362 15.84 30.1362C25.793 30.1496 26.3812 30.1362 26.5812 29.9072C26.6871 29.7725 26.8165 29.4358 26.84 29.153C26.8871 28.8028 26.84 28.5739 26.6989 28.3853C26.4871 28.1294 26.3459 28.116 15.84 28.116V27.4426H21.193C24.5224 27.4426 26.64 27.4964 26.7812 27.5772C26.9106 27.6581 27.0989 27.887 27.193 28.116C27.2871 28.3449 27.3812 28.6816 27.393 28.8836C27.4047 29.0991 27.3694 29.4358 27.3342 29.6648C27.2871 29.8937 27.1341 30.2035 26.7224 30.6749H15.6047C6.75768 30.6749 4.38121 30.648 3.95768 30.4998C3.66356 30.4055 3.19297 30.1631 2.89885 29.9746C2.60474 29.786 2.12238 29.3146 1.8165 28.9375C1.49885 28.5604 1.11062 27.9005 0.934148 27.4695C0.64003 26.7826 0.604736 26.5537 0.604736 25.2203C0.604736 23.8735 0.64003 23.6715 0.934148 22.9577C1.11062 22.5402 1.51062 21.8668 1.82827 21.4762C2.14591 21.0991 2.66356 20.6143 2.96944 20.4123C3.28709 20.2237 3.79297 19.9948 4.11062 19.914C4.4165 19.8331 4.66356 19.7254 4.66356 19.6581C4.66356 19.6042 4.46356 19.4156 4.22827 19.2271C3.99297 19.0385 3.62827 18.648 3.4165 18.3517C3.20474 18.0554 2.88709 17.4493 2.71062 17.0049C2.42827 16.3045 2.38121 16.0217 2.38121 14.85C2.36944 13.557 2.39297 13.4493 2.79297 12.4931C3.08709 11.7927 3.42827 11.281 3.8518 10.823C4.20474 10.4594 4.76944 10.015 5.72238 9.53011V8.82978C5.72238 8.4392 5.82827 7.63112 5.95768 7.03853C6.09885 6.44594 6.38121 5.57052 6.60474 5.08567C6.82827 4.60082 7.26356 3.84661 7.58121 3.40217C7.88709 2.95772 8.44003 2.32473 8.80474 1.98802C9.16944 1.65132 9.76944 1.20688 10.1459 0.977924Z" fill="#0073FA"/>
<path d="M23.8518 12.9367C23.9224 12.8155 23.9106 12.7481 23.8165 12.7077H23.8047C23.7341 12.6673 23.84 12.6404 24.04 12.6404C24.2518 12.6269 24.4282 12.6943 24.4282 12.7616C24.4282 12.8424 24.3459 13.3003 24.24 13.8121C24.1341 14.3508 24.0871 14.93 24.1341 15.2532C24.1812 15.5495 24.2753 16.0613 24.5106 17.004L24.2165 16.9367C24.0126 16.8918 23.8596 16.7257 23.7577 16.4384C23.6753 16.196 23.6047 15.8189 23.6047 15.1859H22.2165C21.4635 15.1859 20.8047 15.1455 20.7577 15.0916C20.7106 15.0242 20.7459 14.8222 20.84 14.6202C20.9341 14.4047 21.04 14.2431 21.0753 14.2431C21.1106 14.2431 21.1106 14.297 21.0753 14.3778C21.04 14.4586 21.4635 14.499 23.5459 14.4451L23.64 13.7717C23.6988 13.4081 23.7929 13.0175 23.8518 12.9367Z" fill="#0073FA"/>
<path d="M22.7341 17.031C22.0871 17.0579 20.9694 17.0579 20.2635 17.031C19.5459 17.0175 20.0753 16.9906 21.44 16.9906C22.7929 16.9906 23.3812 17.0175 22.7341 17.031Z" fill="#0073FA"/>
<path d="M25.4047 23.3205C25.5224 23.2532 25.5106 23.1993 25.3812 23.1185C25.2635 23.0377 25.3459 22.9973 26.0871 22.9973L25.8871 23.563C25.7694 23.9266 25.6988 24.5327 25.6988 25.2195C25.6988 25.9064 25.7694 26.5125 26.0871 27.4418H25.7341C25.5341 27.4418 25.4047 27.3879 25.44 27.3071C25.4753 27.2263 25.44 27.1455 25.3812 27.1051C25.3106 27.0646 25.2047 26.701 25.0282 25.5562H15.8518V26.4317C15.8518 27.0377 15.8988 27.3071 15.9929 27.3205C16.1106 27.3205 16.1106 27.334 15.9929 27.3879C15.8988 27.4283 15.8518 27.7515 15.8518 28.3845C15.8518 29.0983 15.8047 29.3407 15.6753 29.3946C15.5812 29.435 15.1694 29.1926 14.7577 28.8559C14.3577 28.5192 14.0047 28.2498 13.9694 28.2498C13.9341 28.2498 13.5812 28.5192 13.1694 28.8559C12.7694 29.1926 12.3577 29.435 12.2635 29.3946C12.1459 29.3542 12.0871 29.1253 12.0753 28.6943C12.0753 28.3306 12.0753 27.4822 12.0871 25.5562L9.34589 25.5293C6.69883 25.4889 6.61647 25.4754 6.61647 25.2195C6.61647 24.9505 6.69864 24.9502 24.9666 24.8831L25.0282 24.8828L25.1459 24.1421C25.2047 23.738 25.3341 23.3609 25.4047 23.3205Z" fill="#0073FA"/>
<path d="M10.2635 28.0748C9.35765 28.1017 7.81647 28.1017 6.85177 28.0748C5.8753 28.0613 6.61647 28.0343 8.49883 28.0343C10.3694 28.0343 11.1694 28.0613 10.2635 28.0748Z" fill="#0073FA"/>
<path d="M21.0871 30.7684C18.1694 30.7953 13.44 30.7953 10.5577 30.7684C7.6753 30.7549 10.0635 30.7414 15.8518 30.7414C21.64 30.7414 23.9929 30.7549 21.0871 30.7684Z" fill="#0073FA"/>
<path fill-rule="evenodd" clip-rule="evenodd" d="M13.8975 0.654297C14.5798 0.654297 15.3916 0.735105 15.8387 0.856317C16.2622 0.964061 17.0269 1.31423 17.5445 1.62399C18.2034 2.01457 18.7563 2.48595 19.3798 3.19975C20.0622 3.9809 20.3798 4.46574 20.7563 5.35463C21.0269 5.98763 21.3328 6.86305 21.4269 7.3075C21.521 7.75194 21.6034 8.6947 21.6034 9.39504C21.6034 10.0954 21.521 11.0381 21.4269 11.4826C21.3328 11.927 21.0269 12.8024 20.7563 13.4354C20.3798 14.3109 20.0622 14.8226 19.3798 15.6038C18.6975 16.3849 18.2504 16.7486 17.4857 17.1795C16.9328 17.4893 16.1445 17.8395 15.721 17.9607C15.1563 18.1223 14.6151 18.1627 13.6622 18.1223C12.7916 18.0819 12.121 17.9607 11.6034 17.7721C11.1798 17.6105 10.4975 17.2604 10.0739 16.9775C9.65042 16.6947 8.94453 16.0348 8.48571 15.523C7.88571 14.8361 7.53277 14.2705 7.16806 13.4354C6.88571 12.8024 6.57983 11.927 6.48571 11.4826C6.39159 11.0381 6.30924 10.0954 6.30924 9.39504C6.30924 8.6947 6.39159 7.75194 6.48571 7.3075C6.57983 6.86305 6.88571 5.98763 7.1563 5.35463C7.53277 4.47921 7.85042 3.96743 8.53277 3.18628C9.21512 2.41861 9.67395 2.02803 10.4269 1.59706C10.9798 1.28729 11.721 0.950593 12.0739 0.842849C12.4269 0.748573 13.2504 0.654297 13.8975 0.654297ZM22.2151 9.93376H23.3798C24.3916 9.93376 24.5798 9.97416 24.7798 10.2031C24.921 10.3647 25.0151 10.6476 25.0151 10.9035C25.0151 11.1459 24.9328 11.4826 24.8387 11.6442C24.6739 11.9405 24.5798 11.954 23.3092 11.954C21.9681 11.954 21.9563 11.954 22.0151 11.6442C22.0504 11.4826 22.1092 11.0247 22.1445 10.6341L22.2151 9.93376ZM5.59159 10.3378C5.70924 10.3378 5.79159 10.6341 6.01512 12.2368L5.54453 12.6678C5.29748 12.9102 4.97983 13.3816 4.86218 13.7048C4.69748 14.1223 4.63865 14.5264 4.67395 14.9977C4.70532 15.4556 4.83865 15.9001 5.07395 16.3311C5.30924 16.7755 5.59159 17.0987 5.9563 17.3008C6.43865 17.5971 6.62689 17.624 8.1563 17.624C9.73277 17.624 9.87395 17.6375 10.4504 17.9742C10.7916 18.1627 11.4622 18.4321 11.9563 18.5802C12.5092 18.7418 13.2504 18.8361 13.9563 18.8361C14.6622 18.8361 15.3916 18.7418 15.9563 18.5802C16.4387 18.4321 17.1092 18.1627 18.0739 17.6105L21.3798 17.6509C24.521 17.6779 24.6857 17.6913 24.8504 17.9472C24.9445 18.0954 25.0151 18.4051 25.0151 18.6206C25.0151 18.8496 24.9092 19.1728 24.5445 19.6307L5.89748 19.5634L5.14453 19.092C4.721 18.8361 4.20336 18.3782 3.97983 18.0819C3.7563 17.7856 3.42689 17.22 3.26218 16.8024C3.00336 16.1829 2.9563 15.8866 2.9563 14.8496C2.9563 13.8395 3.00336 13.5297 3.25042 12.8967C3.42689 12.4927 3.74453 11.927 3.9563 11.6307C4.17983 11.3479 4.60336 10.9304 4.89748 10.7284C5.17983 10.5129 5.49748 10.3378 5.59159 10.3378ZM6.25042 12.8833L6.59159 13.6644C6.76806 14.0954 7.1563 14.7822 7.42689 15.1863C7.69748 15.6038 8.14453 16.156 8.89748 16.9371H7.77983C6.9563 16.9371 6.54453 16.8833 6.22689 16.7082C5.97983 16.5735 5.68571 16.2503 5.53277 15.927C5.37983 15.6307 5.25042 15.1728 5.25042 14.89C5.25042 14.6072 5.321 14.1896 5.40336 13.9472C5.48571 13.7048 5.70924 13.3681 5.89748 13.193L6.25042 12.8833ZM12.6739 25.5701H15.2622V28.3984L14.6739 27.927C14.3445 27.6577 14.0269 27.4556 13.9681 27.4556C13.8975 27.4556 13.6504 27.6173 13.4034 27.8327C13.1563 28.0348 12.8975 28.2503 12.8151 28.3041C12.6975 28.3715 12.6739 28.0617 12.6739 26.9843V25.5701Z" fill="white"/>
<path d="M8.54838 17.0325C8.32485 17.0594 7.90132 17.0594 7.60721 17.0325C7.31309 17.0055 7.50132 16.9786 8.01897 16.9786C8.53662 16.9786 8.77191 17.0055 8.54838 17.0325Z" fill="#0073FA"/>
<path d="M20.019 19.7261C17.6307 19.753 13.7366 19.753 11.3719 19.7261C9.00721 19.7126 10.9719 19.6991 15.7249 19.6991C20.4778 19.6991 22.4072 19.7126 20.019 19.7261Z" fill="#0073FA"/>
<path d="M12.3837 3.63181C12.5366 3.37591 12.8425 3.06615 13.0543 2.918C13.2778 2.76985 13.6543 2.66211 13.9601 2.66211C14.2778 2.66211 14.6425 2.76985 14.866 2.93147C15.0778 3.07962 15.419 3.45672 15.619 3.76649C15.819 4.08972 16.0307 4.48029 16.0896 4.64191C16.1837 4.92474 16.2778 4.95167 16.9837 4.95167C17.5249 4.95167 17.9484 5.04595 18.2778 5.22103C18.5601 5.36918 18.8896 5.67894 19.019 5.92137C19.1719 6.21767 19.2543 6.59477 19.2543 7.03921C19.2543 7.47019 19.1484 7.95504 18.9601 8.41295C18.7954 8.80352 18.619 9.15369 18.5484 9.1941C18.4778 9.2345 18.6072 9.63854 18.8425 10.1369C19.1601 10.8237 19.2543 11.1739 19.2543 11.7126C19.2543 12.1885 19.1758 12.5701 19.019 12.8574C18.8896 13.1133 18.5601 13.4231 18.2896 13.5712C17.9484 13.7463 17.5249 13.8406 16.1954 13.8406L15.8425 14.5813C15.6425 14.9853 15.2896 15.4837 15.0543 15.6857C14.7013 15.9954 14.5013 16.0628 13.9601 16.0628C13.419 16.0628 13.219 15.9954 12.866 15.6991C12.6307 15.4837 12.2778 14.9853 11.7249 13.8406H10.9249C10.3954 13.8406 9.97191 13.7463 9.6425 13.5712C9.36015 13.4231 9.03073 13.1133 8.90132 12.8709C8.74446 12.5746 8.66603 12.193 8.66603 11.7261C8.66603 11.1739 8.76015 10.8237 9.07779 10.1369C9.31309 9.63854 9.4425 9.2345 9.37191 9.1941C9.31309 9.15369 9.12485 8.80352 8.96015 8.42642C8.77191 7.95504 8.66603 7.47019 8.66603 7.03921C8.66603 6.59477 8.74838 6.21767 8.90132 5.93484C9.03073 5.67894 9.36015 5.36918 9.6425 5.22103C9.97191 5.04595 10.3954 4.95167 10.9249 4.95167C11.7131 4.95167 11.7249 4.9382 11.9131 4.5207C12.019 4.27827 12.2307 3.87423 12.3837 3.63181Z" fill="#0073FA"/>
<path d="M12.6846 4.39796C12.8964 4.04779 13.167 3.67068 13.3081 3.54947C13.4375 3.42826 13.7434 3.33398 13.9787 3.33398C14.2964 3.33398 14.5317 3.44173 14.7905 3.69762C15.0023 3.91311 15.2611 4.29021 15.5787 5.01749L14.014 5.59661L12.2964 5.01749L12.6846 4.39796Z" fill="white"/>
<path d="M9.36696 6.29695C9.42578 6.1488 9.66108 5.93331 9.86108 5.82557H9.87284C10.0728 5.71782 10.5317 5.63701 10.8728 5.62355C11.4023 5.62355 11.4728 5.65048 11.414 5.86597C11.3787 5.98718 11.2846 6.41816 11.214 6.8222C11.0964 7.44173 10.9905 7.64375 10.4846 8.1286C10.167 8.45183 9.86108 8.70772 9.81402 8.72119C9.7552 8.72119 9.61402 8.4653 9.48461 8.15553C9.3552 7.8323 9.24931 7.34745 9.24931 7.07809C9.24931 6.79526 9.30814 6.4451 9.36696 6.29695Z" fill="white"/>
<path d="M16.6611 6.76833C16.6023 6.40469 16.5081 5.98718 16.4611 5.86597C16.3905 5.65048 16.4493 5.62355 16.9787 5.62355C17.3199 5.62355 17.7787 5.71782 18.0023 5.82557C18.2258 5.93331 18.4611 6.1488 18.5317 6.29695C18.6023 6.4451 18.6493 6.80873 18.6493 7.10503C18.6493 7.40132 18.567 7.84577 18.4611 8.08819C18.3552 8.31715 18.2258 8.58651 18.167 8.65385C18.0964 8.73466 17.8258 8.54611 17.4258 8.11513C16.8964 7.54947 16.767 7.33398 16.6611 6.76833Z" fill="white"/>
<path d="M11.8964 6.40469C11.9434 6.16227 11.9905 5.91984 12.0258 5.86597C12.0493 5.79863 12.167 5.75823 12.2728 5.75823C12.3787 5.75823 12.5905 5.78516 12.7434 5.82557C12.8846 5.86597 13.0023 5.96025 13.0023 6.02759C13.0023 6.09493 12.7552 6.31042 12.4493 6.49897C12.1317 6.68752 11.8728 6.83567 11.8611 6.83567C11.8375 6.83567 11.8611 6.63365 11.8964 6.40469Z" fill="white"/>
<path d="M14.8611 6.04106C14.8375 5.97372 14.9317 5.87944 15.0611 5.8525C15.1905 5.8121 15.4258 5.79863 15.5787 5.79863C15.814 5.82557 15.8964 5.93331 15.967 6.29695C16.0258 6.55284 16.0493 6.7818 16.0375 6.80873C16.014 6.8222 15.7552 6.68752 15.4493 6.49897C15.1317 6.31042 14.8728 6.1084 14.8611 6.04106Z" fill="white"/>
<path d="M11.8611 7.75149C12.014 7.57641 12.5081 7.21277 12.9552 6.94341C13.4023 6.66058 13.8375 6.43163 13.9199 6.43163C13.9905 6.43163 14.3434 6.59324 14.6728 6.7818C15.014 6.98382 15.5199 7.32052 16.2964 7.91311V10.8761L15.614 11.3879C15.2493 11.6572 14.7081 12.0074 13.9081 12.4249L13.0258 11.8862C12.5434 11.5899 12.0258 11.2128 11.8728 11.0512C11.614 10.7683 11.5905 10.6336 11.5905 9.39459C11.5905 8.15553 11.614 8.02085 11.8611 7.75149Z" fill="white"/>
<path d="M10.2375 9.39459L10.5787 8.99055C10.767 8.77506 10.9434 8.58651 10.967 8.58651C10.9905 8.58651 11.0023 8.96361 11.0023 10.27L10.2375 9.39459Z" fill="white"/>
<path d="M16.8846 10.27L16.8964 9.42153C16.8964 8.62691 16.9081 8.58651 17.1317 8.72119C17.2493 8.78853 17.414 8.99055 17.4846 9.16563C17.5905 9.42153 17.567 9.5158 16.8846 10.27Z" fill="white"/>
<path d="M9.42578 10.7818C9.5199 10.499 9.67284 10.1892 9.74343 10.0949C9.84931 9.96025 10.0023 10.0545 10.4728 10.5932C10.9552 11.1454 11.0846 11.4013 11.2258 12.0478C11.3081 12.4788 11.4023 12.9097 11.4258 13.004C11.4611 13.1118 11.2964 13.1656 10.8846 13.1656C10.5552 13.1656 10.167 13.0983 10.0023 13.031C9.83755 12.9636 9.60225 12.7751 9.47284 12.6269C9.31598 12.4473 9.23755 12.178 9.23755 11.8188C9.23755 11.5225 9.3199 11.0512 9.42578 10.7818Z" fill="white"/>
<path d="M16.6728 12.0209C16.767 11.4956 16.9199 11.1993 17.3787 10.6471C17.7081 10.2565 18.014 9.97372 18.0728 10.0007C18.1317 10.0411 18.2846 10.3239 18.414 10.6471C18.5434 10.9569 18.6493 11.4687 18.6493 11.7919C18.6493 12.1825 18.5787 12.4384 18.414 12.6269C18.2846 12.7751 18.0493 12.9636 17.8846 13.031C17.7199 13.1118 17.3199 13.1656 17.0023 13.1656C16.4964 13.1656 16.4258 13.1387 16.4846 12.9367C16.5199 12.802 16.6023 12.398 16.6728 12.0209Z" fill="white"/>
<path d="M11.967 12.6134C11.8846 12.3576 11.8258 12.1151 11.8258 12.0613C11.8258 11.9939 11.8493 11.9535 11.8846 11.9535C11.9199 11.9535 12.2258 12.1286 12.5552 12.3441C12.8964 12.5596 13.1317 12.7616 13.0611 12.802C12.9905 12.8424 12.7552 12.9097 12.5317 12.9636C12.1434 13.0579 12.1081 13.031 11.967 12.6134Z" fill="white"/>
<path d="M14.8846 12.7347C14.8846 12.6673 15.1081 12.4788 15.3787 12.3037C15.6611 12.1286 15.9199 11.9804 15.967 11.967C16.0258 11.9535 16.0611 11.9939 16.0611 12.0613C16.0611 12.1151 16.014 12.3576 15.9434 12.6C15.8846 12.8289 15.7905 13.031 15.7317 13.031C15.6846 13.031 15.4728 12.9906 15.2611 12.9367C15.0493 12.8693 14.8846 12.7885 14.8846 12.7347Z" fill="white"/>
<path d="M12.2846 13.7717L13.0258 13.4889C13.4375 13.3273 13.814 13.1926 13.8846 13.1926C13.9552 13.1791 14.367 13.3138 15.6023 13.7717L15.2611 14.3778C15.0846 14.7145 14.7905 15.0916 14.614 15.2262C14.4375 15.3475 14.1317 15.4552 13.9434 15.4552C13.7434 15.4552 13.4493 15.3475 13.2728 15.2262C13.0964 15.0916 12.8023 14.7145 12.2846 13.7717Z" fill="white"/>
</svg>
