<svg width="38" height="35" viewBox="0 0 38 35" fill="none" xmlns="http://www.w3.org/2000/svg">
<path d="M0.477295 35V17.5V0H37.5227V35H0.477295Z" fill="#F7F7F7"/>
<path d="M6.92047 3.11363C7.03411 2.95453 7.3182 2.72726 7.57956 2.60226C7.82956 2.48863 8.18183 2.39772 8.37502 2.39772C8.5682 2.39772 8.86365 2.4659 9.05683 2.54544C9.34093 2.65908 9.46593 2.65908 9.76138 2.53408C9.96593 2.45453 10.2727 2.38635 10.4432 2.38635C10.625 2.38635 10.9432 2.47726 11.1705 2.57953C11.3977 2.69317 11.6932 2.92044 11.8296 3.10226C11.9546 3.27272 12.1591 3.40908 12.2614 3.40908C12.375 3.40908 12.6932 3.54544 12.9773 3.72726C13.3409 3.95453 13.5682 4.2159 13.7727 4.62499C13.9887 5.06817 14.1023 5.18181 14.2273 5.10226C14.3182 5.05681 14.9091 4.87499 15.5341 4.69317C16.5909 4.39772 16.8068 4.37499 18.7727 4.38635C20.6932 4.38635 20.9659 4.40908 23.1477 4.99999L23.3182 4.74999C23.4091 4.60226 23.7159 4.23863 24 3.94317C24.3182 3.60226 24.8182 3.23863 25.3068 2.99999C25.75 2.78408 26.4546 2.54544 26.8977 2.47726C27.5 2.37499 27.8637 2.37499 28.4546 2.47726C28.875 2.55681 29.5227 2.74999 29.875 2.92044C30.2387 3.0909 30.8296 3.51135 31.1932 3.86363C31.6477 4.28408 31.9886 4.74999 32.25 5.28408C32.4659 5.72726 32.6932 6.38635 32.75 6.76135C32.8068 7.13635 32.8636 7.95453 32.875 8.57953C32.875 9.28408 32.9546 10.0114 33.0796 10.5114C33.2727 11.25 33.2727 11.3295 33.1023 11.5795C33 11.7273 32.6932 11.9886 32.4091 12.1704C32.125 12.3523 31.625 12.5682 31.2955 12.6477C30.8409 12.75 30.7159 12.8295 30.7727 12.9545C30.8068 13.0454 30.9432 13.5114 31.0796 13.9773C31.2727 14.7045 31.3182 15.1477 31.3182 16.9318C31.3182 18.8636 31.2955 19.1136 31.0227 20.0568C30.8523 20.6136 30.6818 21.1932 30.5341 21.5909L31.2159 21.4204C31.5909 21.3295 32.0796 21.2273 32.6932 21.1136L32.9432 22.0909C33.0909 22.625 33.2386 23.4432 33.2727 23.8977C33.3182 24.4545 33.2841 24.9773 33.1591 25.5454C32.9886 26.2954 32.9886 26.3977 33.1591 26.7386C33.2841 26.9773 33.3182 27.2273 33.2727 27.4773C33.2386 27.6704 33.0796 27.9886 32.9205 28.1818C32.7273 28.4091 32.4887 28.5454 32.2046 28.5909C31.8296 28.6477 31.7614 28.7159 31.5 29.2841C31.3296 29.6591 31 30.125 30.6705 30.4091C30.375 30.6818 29.9205 31.0114 29.6591 31.1364C29.3864 31.25 28.8637 31.3864 28.4887 31.4318C28.0114 31.4886 27.625 31.4545 27.1818 31.3295C26.8409 31.2273 26.3296 31 26.0455 30.8182C25.7614 30.625 25.3409 30.2045 25.1137 29.875C24.8864 29.5341 24.6591 29.1364 24.625 28.9773C24.5796 28.7614 24.4659 28.6704 24.1705 28.6136C23.8637 28.5454 23.6137 28.5909 23.125 28.7954C22.7614 28.9432 21.9318 29.1818 21.2727 29.3182C20.25 29.5341 19.8409 29.5568 18.3182 29.5114C16.9659 29.4659 16.3296 29.3864 14.5682 28.9204V29.3182C14.5682 29.5341 14.4659 29.9204 14.3523 30.1704C14.25 30.4204 13.9887 30.7614 13.7955 30.9432C13.5909 31.1136 13.2159 31.3068 12.9432 31.3864C12.5455 31.5 12.3409 31.4886 11.7273 31.3295C11.0682 31.1591 10.9205 31.1591 10.3637 31.3068C10.0227 31.3977 9.55683 31.4773 9.34093 31.4773C9.12502 31.4773 8.67047 31.3977 8.34093 31.3068C7.80683 31.1477 7.68183 31.1591 7.10229 31.3182C6.68183 31.4318 6.27274 31.4773 5.98865 31.4318C5.73865 31.3864 5.35229 31.2386 5.13638 31.0909C4.92047 30.9545 4.62502 30.6136 4.47729 30.3295C4.22729 29.8523 4.21593 29.7386 4.26138 27.5C4.29547 25.4432 4.32956 25.1023 4.53411 24.5454C4.67047 24.2045 5.01138 23.6136 5.28411 23.2386C5.55683 22.8636 6.05683 22.3636 7.01138 21.7045L6.73865 20.875C6.60229 20.4318 6.40911 19.6818 6.3182 19.2386C6.22729 18.7841 6.15911 17.75 6.15911 16.9318C6.15911 16.0909 6.22729 15.0682 6.32956 14.5795C6.42047 14.0909 6.63638 13.2954 7.12502 11.9091L6.88638 11.7273C6.75002 11.625 6.47729 11.3068 6.28411 11.0227C6.09093 10.7386 5.89774 10.3864 5.87502 10.2273C5.82956 9.99999 5.72729 9.92044 5.38638 9.86363C5.13638 9.81817 4.82956 9.63635 4.62502 9.43181C4.32956 9.12499 4.28411 8.99999 4.30684 8.54544C4.3182 8.24999 4.32956 7.88635 4.34093 7.72726C4.35229 7.56817 4.3182 7.2159 4.27274 6.93181C4.20456 6.52272 4.23865 6.32953 4.42047 5.9659C4.54547 5.7159 4.71593 5.30681 4.79547 5.05681C4.87502 4.80681 5.05683 4.43181 5.20456 4.23863C5.35229 4.03408 5.68183 3.76135 5.93183 3.63635C6.18183 3.51135 6.46593 3.40908 6.55683 3.40908C6.64774 3.40908 6.8182 3.27272 6.92047 3.11363Z" fill="#0073FA"/>
<path fill-rule="evenodd" clip-rule="evenodd" d="M8.35232 3.30681C8.39778 3.29545 8.5455 3.35227 8.69323 3.42045C8.8296 3.48863 9.0455 3.64772 9.1705 3.76136C9.39778 3.97727 9.39778 3.97727 9.62505 3.73863C9.75005 3.60227 9.9546 3.45454 10.091 3.39772C10.216 3.3409 10.466 3.32954 10.6478 3.375C10.8523 3.43181 11.0796 3.625 11.2387 3.88636C11.4546 4.25 11.5569 4.31818 11.8978 4.31818C12.2046 4.31818 12.3864 4.40909 12.6932 4.7159C12.9773 5 13.091 5.2159 13.091 5.47727C13.091 5.68181 13.1932 5.95454 13.3069 6.07954C13.4319 6.20454 13.5341 6.40909 13.5455 6.53409C13.5569 6.65909 13.5682 6.85227 13.5569 6.95454C13.5455 7.11363 13.4773 7.14772 13.2387 7.0909C13.0569 7.04545 12.7955 6.89772 12.6364 6.75C12.4773 6.60227 12.1591 6.40909 11.9319 6.31818C11.6932 6.2159 11.1819 6.13636 10.7955 6.13636C10.3978 6.13636 9.85232 6.05681 9.56823 5.9659C9.28414 5.875 8.87505 5.63636 8.64778 5.43181C8.43187 5.22727 8.15914 4.94318 8.05687 4.79545C7.87505 4.55681 7.84096 4.55681 7.52278 4.7159C7.34096 4.80681 7.18187 4.95454 7.18187 5.02272C7.18187 5.10227 7.26141 5.27272 7.35232 5.39772C7.4546 5.52272 7.52278 5.64772 7.52278 5.68181C7.52278 5.7159 7.30687 5.79545 7.0455 5.86363C6.73869 5.95454 6.43187 6.14772 6.2046 6.39772C6.02278 6.61363 5.84096 6.8409 5.80687 6.90909C5.78414 6.9659 5.64778 7.04545 5.51141 7.0909C5.2955 7.14772 5.23869 7.10227 5.18187 6.8409C5.13641 6.625 5.18187 6.44318 5.3296 6.25C5.4546 6.0909 5.59096 5.76136 5.64778 5.51136C5.69323 5.22727 5.87505 4.92045 6.10232 4.68181C6.38641 4.40909 6.5796 4.31818 6.88641 4.31818C7.23869 4.31818 7.3296 4.26136 7.53414 3.92045C7.65914 3.69318 7.87505 3.4659 8.01141 3.40909C8.14778 3.35227 8.2955 3.30681 8.35232 3.30681ZM27.5228 3.30681C27.6137 3.29545 28 3.35227 28.375 3.42045C28.75 3.48863 29.2955 3.67045 29.6023 3.81818C29.8978 3.9659 30.3637 4.31818 30.6478 4.60227C30.9319 4.88636 31.2955 5.40909 31.466 5.76136C31.7387 6.3409 31.7841 6.625 31.8637 8.0909C31.9091 9.02272 32.0228 10.0795 32.1023 10.4545C32.1932 10.9091 32.2046 11.1818 32.125 11.2386C32.0682 11.2954 31.841 11.4204 31.6478 11.5227C31.4432 11.625 31.0455 11.7045 30.25 11.7045L30.6023 11.2159C30.7955 10.9545 31.0341 10.5568 31.125 10.3409C31.216 10.125 31.3296 9.45454 31.3637 8.86363C31.4205 7.88636 31.3978 7.73863 31.1478 7.22727C30.9773 6.88636 30.7273 6.5909 30.4773 6.44318C30.1819 6.26136 29.7955 6.18181 29 6.125C28.2387 6.07954 27.7841 5.98863 27.4432 5.80681C27.1705 5.68181 26.7614 5.3409 26.1023 4.55681L25.7273 4.75C25.5228 4.85227 25.3637 4.9659 25.3523 5C25.3523 5.03409 25.4773 5.20454 25.875 5.70454L25.591 5.77272C25.4319 5.80681 25.1023 5.94318 24.8523 6.07954C24.5682 6.2159 24.2955 6.47727 24.1478 6.76136C23.9319 7.14772 23.8864 7.38636 23.8864 8.375C23.8864 9.1553 23.947 9.72348 24.0682 10.0795C24.1705 10.3864 24.4205 10.8636 25.0228 11.7045H24.5455C24.2728 11.7045 23.841 11.6023 23.5796 11.4773C23.2728 11.3409 23.091 11.1704 23.091 11.0454C23.091 10.9432 23.1478 10.6704 23.2046 10.4545C23.2728 10.2386 23.3637 9.26136 23.4205 8.29545C23.5 6.69318 23.5341 6.4659 23.841 5.80681C24.0569 5.32954 24.375 4.89772 24.7728 4.53409C25.091 4.22727 25.6023 3.86363 25.9091 3.73863C26.2046 3.60227 26.6478 3.45454 26.8978 3.40909C27.1478 3.36363 27.4319 3.31818 27.5228 3.30681ZM19.0569 5.27272C20.2387 5.30681 20.9091 5.38636 21.6705 5.5909C22.5569 5.81818 22.6932 5.88636 22.6591 6.07954C22.6364 6.20454 22.5796 7.06818 22.5228 8.01136C22.466 8.94318 22.3182 10.0909 22.0114 11.3864L22.5796 11.8977C22.9432 12.2159 23.3523 12.4659 23.716 12.5682C24.0341 12.6591 24.4432 12.7273 24.625 12.7273C24.8182 12.7273 25.2273 12.6591 25.5341 12.5568C26.0341 12.4091 26.1705 12.4091 26.6705 12.5568C26.9887 12.6591 27.4205 12.7273 27.6364 12.7273C27.8523 12.7273 28.3069 12.6477 28.6364 12.5568C29.0569 12.4318 29.2955 12.4204 29.4546 12.5C29.6023 12.5682 29.7728 12.8977 29.9205 13.375C30.0569 13.8068 30.2387 14.5341 30.3182 15C30.3978 15.4659 30.466 16.3409 30.466 16.9318C30.466 17.5227 30.3978 18.3977 30.3182 18.8636C30.2387 19.3295 30.0341 20.1364 29.8637 20.6477C29.6137 21.4659 29.5341 21.5909 29.3182 21.5909C29.1705 21.5909 28.6364 21.4886 28.125 21.3636C27.6023 21.2386 27.0682 21.1364 26.9319 21.1364C26.7046 21.1364 26.6819 21.0795 26.716 20.7614C26.7387 20.5682 26.6705 20.25 26.5682 20.0568C26.4773 19.8636 26.2614 19.6364 25.8069 19.375L25.8182 14.3182L25.1364 13.6364H22.8069C20.6705 13.6364 20.4773 13.625 20.4773 13.4318C20.4773 13.3295 20.375 13.0227 20.25 12.75C20.125 12.4886 19.8637 12.1704 19.6591 12.0454C19.4319 11.9091 19.0796 11.8182 18.8069 11.8182C18.5341 11.8182 18.1819 11.8864 18.0114 11.9773C17.8296 12.0682 17.6023 12.2273 17.5 12.3409C17.3864 12.4659 17.2273 12.7841 16.9887 13.5795L12.2728 13.6932L12.0001 14C11.7728 14.2727 11.7273 14.4432 11.7273 15.0568C11.7273 15.7273 11.7614 15.8295 12.0682 16.1364C12.3637 16.4318 12.4887 16.4773 13.6591 16.4773V19.7727L13.9773 20.0114C14.2728 20.2386 14.3978 20.2386 23.4546 20.1705L23.6705 19.8864C23.875 19.6364 23.8978 19.4204 23.8864 16.4773H24.9091V19.2614L24.5682 19.5114C24.3864 19.6591 24.1478 19.9659 24.0455 20.1932C23.9319 20.4811 23.9016 20.7386 23.9546 20.9659C24 21.1477 24.1591 21.4432 24.5682 21.9318L24.1137 22.5795C23.8637 22.9545 23.6023 23.4773 23.5455 23.7727C23.4773 24.0795 23.4319 24.7159 23.4319 25.1932C23.4319 25.8636 23.3637 26.2045 23.1819 26.5909C23.0228 26.9318 22.966 27.2159 23.0114 27.4432C23.0682 27.7273 23.0341 27.8068 22.7728 27.9318C22.6023 28.0227 22.0569 28.1932 21.5569 28.3068C21.0569 28.4318 20.0341 28.5682 19.2841 28.6023C18.2955 28.6477 17.6364 28.6136 16.875 28.4773C16.2955 28.375 15.5455 28.2045 14.625 27.8977L14.5569 26.5909C14.5 25.75 14.3978 25.0682 14.2614 24.6591C14.1364 24.3182 13.9205 23.8523 13.7955 23.6364C13.6591 23.4204 13.2955 22.9773 12.9887 22.6704C12.6819 22.3523 12.1819 21.9659 11.8864 21.7954C11.5796 21.625 10.9773 21.4091 10.5341 21.3068C9.98869 21.1705 9.50005 21.1364 8.97732 21.1818C8.5455 21.2159 8.12505 21.2727 8.03414 21.3068C7.90914 21.3523 7.7955 21.1364 7.5796 20.4204C7.43187 19.9091 7.25005 19.1591 7.18187 18.75C7.12505 18.3409 7.06823 17.5227 7.06823 16.9318C7.06823 16.3409 7.12505 15.5227 7.18187 15.1136C7.25005 14.7045 7.43187 13.9545 7.86369 12.5L8.35232 12.5795C8.61369 12.6364 9.15914 12.6704 9.56823 12.6591C10.0682 12.6477 10.4887 12.5682 10.8523 12.4091C11.1478 12.2727 11.625 11.9318 11.9319 11.6591C12.25 11.3636 12.5796 10.9204 12.75 10.5341C12.9546 10.0682 13.091 9.88636 13.2614 9.88636C13.3864 9.88636 13.6591 9.78409 13.8637 9.65909C14.0569 9.53409 14.3069 9.23863 14.4091 9C14.5682 8.65909 14.5796 8.48863 14.4773 8.125C14.3864 7.80681 14.3864 7.53409 14.466 7.2159C14.5341 6.9659 14.5569 6.5909 14.5228 6.38636C14.4546 6.04545 14.4773 6.01136 14.9432 5.85227C15.2046 5.75 15.8864 5.56818 16.4432 5.45454C17.2728 5.27272 17.7728 5.23863 19.0569 5.27272ZM8.26141 6.47727C8.3296 6.47727 8.63641 6.57954 8.94323 6.72727C9.3296 6.89772 9.84096 6.98863 10.5569 7.03409C11.4546 7.0909 11.6364 7.13636 11.8978 7.38636C12.1932 7.65909 12.2046 7.70454 12.1591 8.76136C12.125 9.73863 12.091 9.90909 11.7841 10.4091C11.5569 10.7614 11.2273 11.0909 10.875 11.3068C10.5569 11.5 10.091 11.6932 9.8296 11.7386C9.5455 11.7841 9.09096 11.7614 8.75005 11.6818C8.4205 11.6136 7.94323 11.3977 7.69323 11.2045C7.43187 11 7.10232 10.5795 6.9205 10.2273C6.64778 9.67045 6.61369 9.47727 6.61369 8.4659C6.61369 7.72727 6.65914 7.26136 6.75005 7.125C6.8296 7.01136 7.18187 6.82954 7.52278 6.70454C7.86369 6.5909 8.2046 6.48863 8.26141 6.47727ZM26.5569 6.48863C26.625 6.47727 26.8978 6.57954 27.1819 6.7159C27.5455 6.89772 28.0114 6.98863 28.7955 7.03409C29.7387 7.0909 29.9432 7.13636 30.1591 7.36363C30.3637 7.56818 30.4319 7.78409 30.466 8.32954C30.4887 8.76136 30.4319 9.28409 30.3182 9.68181C30.1932 10.1477 29.9887 10.5 29.6591 10.8636C29.3637 11.1704 28.966 11.4545 28.6591 11.5682C28.375 11.6704 27.9205 11.75 27.6364 11.75C27.3523 11.75 26.9205 11.6704 26.6705 11.5909C26.4205 11.5 26.0228 11.25 25.7728 11.0341C25.5341 10.8068 25.2273 10.4204 25.1023 10.1704C24.9319 9.82954 24.8523 9.42045 24.8182 8.57954C24.7728 7.5 24.7841 7.43181 25.0341 7.13636C25.1819 6.9659 25.5569 6.75 25.875 6.65909C26.1932 6.56818 26.5 6.48863 26.5569 6.48863ZM5.48869 8.06818C5.5455 8.06818 5.59096 8.27272 5.59096 8.52272C5.59096 8.875 5.55687 8.9659 5.4205 8.92045C5.3296 8.88636 5.22732 8.76136 5.19323 8.63636C5.15914 8.51136 5.19323 8.32954 5.26141 8.23863C5.3296 8.14772 5.43187 8.06818 5.48869 8.06818ZM13.2955 8.0909C13.4091 8.11363 13.5 8.25 13.5228 8.40909C13.5341 8.56818 13.5 8.76136 13.4319 8.82954C13.375 8.90909 13.2728 8.95454 13.2046 8.92045C13.1478 8.88636 13.091 8.68181 13.1023 8.45454C13.1137 8.14772 13.1591 8.05681 13.2955 8.0909ZM18.75 12.7273C18.9205 12.7159 19.1364 12.8068 19.2387 12.9205C19.341 13.0341 19.4546 13.2386 19.5 13.375C19.5682 13.625 19.5455 13.6364 18.7728 13.6364C18.1819 13.6364 17.9773 13.5909 17.966 13.4773C17.9546 13.3977 18.0682 13.1932 18.2046 13.0227C18.3523 12.8409 18.5682 12.7273 18.75 12.7273ZM24.8523 14.6023V15.5114H12.6932L12.6591 15.1704C12.6364 14.9773 12.6478 14.7614 12.6819 14.6818C12.7387 14.5682 14.0228 14.5454 24.8523 14.6023ZM14.5682 16.4773H22.9773V19.3182H14.5682V16.4773ZM25.3978 20.2386C25.5 20.2273 25.6478 20.3295 25.7046 20.4545C25.7804 20.6061 25.7804 20.7576 25.7046 20.9091C25.6478 21.0341 25.5114 21.1364 25.4205 21.1364C25.3296 21.1364 25.1705 21.1136 25.0796 21.0795C24.9887 21.0455 24.8978 20.875 24.8864 20.6932C24.875 20.4886 24.9319 20.3409 25.0341 20.3068C25.1137 20.2727 25.2841 20.2386 25.3978 20.2386ZM9.28414 22.0568C9.35232 22.0454 9.7046 22.1023 10.0796 22.1704C10.4546 22.2386 11.0682 22.4545 11.4319 22.6477C11.8069 22.8523 12.2841 23.2159 12.4887 23.4659C12.7046 23.7159 13.0114 24.1591 13.1591 24.4545C13.3069 24.7614 13.4773 25.3409 13.5455 25.7614C13.6023 26.1932 13.6591 27.1477 13.6591 27.8977C13.6591 28.6477 13.6023 29.4545 13.5455 29.6818C13.4773 29.9204 13.3182 30.1818 13.1819 30.2727C13.0341 30.3636 12.7955 30.4659 12.6364 30.5C12.4773 30.5454 12.2728 30.5227 12.1819 30.4659C12.0341 30.3636 12.0455 30.3182 12.25 30.0909C12.3864 29.9432 12.6137 29.6023 12.7614 29.3182C12.9773 28.8864 13.0341 28.5909 13.0682 27.5C13.1023 26.2841 13.091 26.1704 12.841 25.7954C12.6932 25.5795 12.3523 25.2841 12.0682 25.1364C11.6932 24.9545 11.3637 24.8864 10.8182 24.8864C10.4091 24.8864 9.8296 24.8068 9.51141 24.6932C9.2046 24.5795 8.78414 24.3409 8.59096 24.1477C8.40914 23.9659 8.15914 23.6932 8.05687 23.5454C7.87505 23.3068 7.84096 23.3068 7.52278 23.4659C7.34096 23.5568 7.18187 23.7045 7.18187 23.7727C7.18187 23.8523 7.26141 24.0341 7.35232 24.1704C7.44323 24.3182 7.51141 24.4432 7.50005 24.4659C7.47732 24.4886 7.26141 24.5568 7.01141 24.625C6.73869 24.7045 6.40914 24.9204 6.19323 25.1591C5.98869 25.3864 5.77278 25.7614 5.7046 25.9886C5.64778 26.2273 5.59096 26.75 5.59096 27.1591C5.59096 27.5682 5.6705 28.2045 5.76141 28.5795C5.85232 28.9545 6.10232 29.5341 6.3296 29.8523C6.7046 30.4204 6.71596 30.4545 6.50005 30.5114C6.37505 30.5454 6.09096 30.4886 5.87505 30.3977C5.64778 30.3068 5.39778 30.0795 5.30687 29.8864C5.18187 29.625 5.13641 29.1136 5.13641 27.75C5.13641 26.5 5.19323 25.7614 5.30687 25.2841C5.40914 24.9091 5.64778 24.3523 5.85232 24.0454C6.05687 23.7386 6.4205 23.3182 6.6705 23.1023C6.9205 22.8977 7.35232 22.6136 7.63641 22.4886C7.9205 22.3523 8.37505 22.2045 8.65914 22.1591C8.94323 22.1136 9.22732 22.0682 9.28414 22.0568ZM26.7614 22.0568C26.8069 22.0454 27.3182 22.1477 27.8978 22.2841C28.7387 22.4773 29.1705 22.5114 30.1364 22.4545C30.7955 22.4204 31.4887 22.3636 31.6705 22.3182C32 22.25 32.0114 22.2614 32.1705 22.8523C32.2614 23.1932 32.3296 23.8182 32.3296 24.2614C32.3296 24.6932 32.2955 25.2273 32.25 25.4204C32.2046 25.7045 32.125 25.7954 31.9319 25.7954C31.7841 25.8068 31.5682 25.6932 31.4432 25.5568C31.3182 25.4204 31.0114 25.2159 30.7614 25.1023C30.466 24.9659 30.0455 24.8864 29.5682 24.8864C29.1591 24.8864 28.6023 24.8068 28.3182 24.7159C28.0341 24.625 27.625 24.3864 27.3978 24.1818C27.1819 23.9773 26.9091 23.6932 26.8069 23.5454C26.625 23.3068 26.591 23.3068 26.2728 23.4659C26.091 23.5568 25.9319 23.7045 25.9319 23.7727C25.9319 23.8523 26.0114 24.0227 26.1023 24.1477C26.2046 24.2727 26.2728 24.4091 26.2728 24.4545C26.2728 24.5114 26.0796 24.5795 25.8523 24.6136C25.5455 24.6591 25.2841 24.8182 24.9432 25.1818C24.6705 25.4545 24.4205 25.6818 24.375 25.6818C24.3182 25.6818 24.3182 25.2841 24.3523 24.8068C24.3978 24.3182 24.5114 23.7386 24.625 23.5227C24.7273 23.3068 24.9319 23 25.0682 22.8636C25.1932 22.7159 25.466 22.5114 25.6478 22.4091C25.841 22.3182 26.1478 22.1932 26.3296 22.1477C26.5228 22.1023 26.7046 22.0682 26.7614 22.0568ZM8.2955 25.2386C8.36369 25.2273 8.64778 25.3409 8.9205 25.4659C9.26141 25.6477 9.7046 25.7386 10.5001 25.7841C11.4546 25.8409 11.6364 25.8864 11.8978 26.1364C12.1932 26.4091 12.2046 26.4545 12.1591 27.5114C12.125 28.4886 12.091 28.6591 11.7841 29.1591C11.5569 29.5114 11.2273 29.8409 10.875 30.0568C10.5569 30.25 10.091 30.4432 9.8296 30.4886C9.5455 30.5341 9.09096 30.5114 8.75005 30.4318C8.4205 30.3636 7.94323 30.1477 7.69323 29.9545C7.43187 29.75 7.10232 29.3295 6.9205 28.9773C6.64778 28.4204 6.61369 28.2273 6.61369 27.2159C6.61369 26.4773 6.65914 26.0114 6.75005 25.875C6.8296 25.7614 7.18187 25.5795 7.52278 25.4545C7.86369 25.3409 8.21596 25.2386 8.2955 25.2386ZM27.0455 25.2386C27.1137 25.2273 27.3978 25.3409 27.6705 25.4659C28.0114 25.6477 28.4546 25.7386 29.25 25.7841C30.2046 25.8409 30.375 25.8864 30.6478 26.1364C30.9432 26.4091 30.9546 26.4545 30.9091 27.5114C30.875 28.4886 30.841 28.6591 30.5341 29.1591C30.3069 29.5114 29.9773 29.8409 29.625 30.0568C29.3069 30.25 28.841 30.4432 28.5796 30.4886C28.2955 30.5341 27.841 30.5114 27.5 30.4318C27.1705 30.3636 26.6932 30.1477 26.4432 29.9545C26.1819 29.75 25.8523 29.3295 25.6705 28.9773C25.3978 28.4204 25.3637 28.2273 25.3637 27.2159C25.3637 26.4773 25.4091 26.0114 25.5 25.875C25.5796 25.7614 25.9319 25.5795 26.2728 25.4545C26.6137 25.3409 26.966 25.2386 27.0455 25.2386ZM24.2273 26.8182C24.2955 26.8182 24.341 27.0227 24.341 27.2727C24.341 27.5909 24.2955 27.7159 24.2046 27.6704C24.125 27.6477 24.0228 27.5454 23.9773 27.4432C23.9205 27.3523 23.9432 27.1704 24 27.0454C24.0682 26.9204 24.1705 26.8182 24.2273 26.8182ZM32.0114 26.8182C32.1023 26.8182 32.2273 26.9091 32.2955 27.0114C32.3637 27.1591 32.3523 27.2954 32.2387 27.4659C32.1478 27.6136 32.0228 27.7045 31.9546 27.6704C31.8978 27.6364 31.841 27.4318 31.841 27.2159C31.841 26.9432 31.8978 26.8182 32.0114 26.8182Z" fill="#F7F7F7"/>
<path d="M9.05682 9.88637C9.59091 9.88637 9.73864 9.84092 10.0341 9.55683C10.375 9.23864 10.3977 9.23864 10.7727 9.4091C10.9773 9.51137 11.1591 9.62501 11.1591 9.68183C11.1591 9.72728 11.0341 9.9091 10.8977 10.0909C10.75 10.2614 10.4432 10.4886 10.2159 10.6023C9.95455 10.7159 9.5341 10.7955 8.43182 10.7955V9.88637H9.05682Z" fill="#0073FA"/>
<path d="M27.3523 9.88637C27.8523 9.88637 28.0341 9.82955 28.2955 9.60228C28.4659 9.45455 28.6364 9.31819 28.6932 9.31819C28.7386 9.31819 28.9318 9.39774 29.4545 9.6591L29.2386 10C29.125 10.1932 28.8182 10.4432 28.5568 10.5682C28.25 10.7159 27.8523 10.7955 26.7273 10.7955V9.88637H27.3523Z" fill="#0073FA"/>
<path d="M9.05682 28.6364C9.59091 28.6364 9.73864 28.5909 10.0341 28.3068C10.375 27.9886 10.3977 27.9886 10.7727 28.1591C10.9773 28.2614 11.1591 28.3864 11.1591 28.4546C11.1591 28.5227 11 28.7386 10.7955 28.9432C10.5909 29.1364 10.2841 29.3636 10.1136 29.4205C9.93182 29.4886 9.48864 29.5455 8.43182 29.5455V28.6364H9.05682Z" fill="#0073FA"/>
<path d="M28.6364 28.4773C28.8068 28.3977 28.9773 28.2386 29.0227 28.1364C29.1023 27.9659 29.1364 27.9659 29.5 28.1477C29.7273 28.25 29.9091 28.3864 29.9091 28.4546C29.9091 28.5227 29.75 28.7386 29.5455 28.9432C29.3409 29.1364 29.0341 29.3636 28.8636 29.4205C28.6818 29.4886 28.2386 29.5455 27.1818 29.5455V28.6364H27.75C28.0682 28.6364 28.4545 28.5682 28.6364 28.4773Z" fill="#0073FA"/>
</svg>
