<svg width="282" height="190" viewBox="0 0 282 190" fill="none" xmlns="http://www.w3.org/2000/svg">
<rect x="2.07812" y="0.5" width="279.244" height="187.413" rx="3.5" fill="#0D0F3F" stroke="#0D0F3F"/>
<path d="M257.863 147.557C255.301 147.557 252.853 147.167 250.521 146.386C248.188 145.605 246.18 144.452 244.497 142.926L247.251 138.294C249.048 139.643 250.807 140.636 252.528 141.275C254.288 141.914 255.97 142.234 257.577 142.234C259.068 142.234 260.254 141.985 261.133 141.488C262.051 140.991 262.51 140.246 262.51 139.252C262.51 138.578 262.262 138.063 261.764 137.708C261.267 137.318 260.541 136.981 259.584 136.697C258.667 136.413 257.538 136.094 256.2 135.739C253.982 135.064 252.127 134.408 250.635 133.769C249.144 133.13 248.016 132.331 247.251 131.373C246.524 130.379 246.161 129.119 246.161 127.593C246.161 125.748 246.658 124.168 247.652 122.855C248.685 121.506 250.1 120.459 251.897 119.714C253.733 118.969 255.875 118.596 258.322 118.596C260.464 118.596 262.491 118.915 264.403 119.554C266.315 120.158 268.055 121.151 269.624 122.536L266.526 127.061C264.996 125.961 263.543 125.162 262.166 124.665C260.789 124.133 259.393 123.867 257.978 123.867C257.175 123.867 256.41 123.955 255.684 124.133C254.995 124.31 254.421 124.612 253.963 125.038C253.542 125.428 253.331 125.996 253.331 126.741C253.331 127.416 253.523 127.948 253.905 128.339C254.326 128.693 254.938 129.013 255.741 129.297C256.582 129.581 257.596 129.9 258.781 130.255C261.191 130.894 263.218 131.551 264.862 132.225C266.545 132.899 267.807 133.733 268.648 134.727C269.49 135.685 269.91 137.016 269.91 138.72C269.91 141.488 268.82 143.653 266.64 145.215C264.461 146.777 261.535 147.557 257.863 147.557Z" fill="url(#paint0_linear_209_1433)"/>
<path d="M211.046 136.596V119.134H218.733V135.052C218.733 137.182 219.154 138.797 219.996 139.897C220.837 140.962 222.08 141.494 223.724 141.494C224.719 141.494 225.694 141.317 226.65 140.962C227.644 140.571 228.543 140.003 229.346 139.258C230.188 138.513 230.895 137.572 231.469 136.436V119.134H239.156V139.045C239.156 139.79 239.29 140.323 239.557 140.642C239.863 140.962 240.341 141.157 240.992 141.228V147.031C240.227 147.137 239.577 147.208 239.041 147.244C238.544 147.315 238.085 147.35 237.664 147.35C236.288 147.35 235.159 147.066 234.28 146.498C233.438 145.895 232.941 145.079 232.788 144.049L232.616 141.813C231.278 143.695 229.557 145.132 227.453 146.126C225.35 147.084 223.036 147.563 220.512 147.563C217.414 147.563 215.062 146.64 213.456 144.795C211.85 142.914 211.046 140.181 211.046 136.596Z" fill="url(#paint1_linear_209_1433)"/>
<path d="M193.068 108.169H200.755V138.089C200.755 139.366 200.985 140.236 201.444 140.697C201.903 141.123 202.534 141.336 203.337 141.336C203.949 141.336 204.58 141.265 205.23 141.123C205.88 140.981 206.454 140.804 206.951 140.591L207.984 146.021C206.951 146.483 205.746 146.837 204.37 147.086C202.993 147.334 201.75 147.459 200.641 147.459C198.231 147.459 196.357 146.873 195.019 145.702C193.719 144.495 193.068 142.791 193.068 140.591V108.169Z" fill="url(#paint2_linear_209_1433)"/>
<path d="M174.777 147.561C172.444 147.561 170.379 147.081 168.581 146.123C166.822 145.129 165.445 143.798 164.451 142.13V158.368H156.764V119.131H163.476V123.923C164.623 122.29 166.076 121.013 167.835 120.09C169.595 119.131 171.602 118.652 173.859 118.652C175.886 118.652 177.741 119.025 179.423 119.77C181.144 120.516 182.636 121.563 183.898 122.911C185.16 124.225 186.135 125.751 186.824 127.49C187.55 129.193 187.914 131.039 187.914 133.027C187.914 135.724 187.34 138.173 186.193 140.373C185.083 142.574 183.535 144.331 181.546 145.644C179.595 146.922 177.339 147.561 174.777 147.561ZM172.195 141.491C173.381 141.491 174.452 141.261 175.408 140.799C176.364 140.338 177.186 139.717 177.874 138.936C178.601 138.12 179.137 137.215 179.481 136.221C179.863 135.192 180.054 134.127 180.054 133.027C180.054 131.855 179.844 130.773 179.423 129.779C179.041 128.785 178.467 127.916 177.702 127.17C176.937 126.39 176.039 125.786 175.006 125.36C174.012 124.934 172.922 124.721 171.736 124.721C171.01 124.721 170.264 124.846 169.499 125.094C168.772 125.307 168.065 125.627 167.376 126.052C166.688 126.478 166.076 126.975 165.541 127.543C165.044 128.111 164.68 128.732 164.451 129.406V135.955C164.91 136.984 165.522 137.925 166.286 138.776C167.09 139.628 168.007 140.302 169.04 140.799C170.073 141.261 171.124 141.491 172.195 141.491Z" fill="url(#paint3_linear_209_1433)"/>
<path d="M107.987 138.776C107.987 136.966 108.523 135.387 109.594 134.038C110.703 132.654 112.232 131.589 114.183 130.844C116.133 130.099 118.371 129.726 120.895 129.726C122.157 129.726 123.438 129.815 124.738 129.992C126.039 130.17 127.167 130.453 128.123 130.844V129.353C128.123 127.579 127.549 126.212 126.402 125.254C125.293 124.296 123.629 123.816 121.411 123.816C119.767 123.816 118.199 124.083 116.707 124.615C115.215 125.147 113.647 125.928 112.003 126.957L109.536 122.273C111.525 121.066 113.552 120.161 115.617 119.557C117.72 118.954 119.919 118.652 122.214 118.652C126.497 118.652 129.825 119.646 132.196 121.634C134.605 123.621 135.81 126.461 135.81 130.152V139.043C135.81 139.788 135.944 140.32 136.212 140.64C136.517 140.959 136.996 141.154 137.646 141.225V147.028C136.957 147.135 136.326 147.223 135.753 147.294C135.217 147.365 134.758 147.401 134.376 147.401C132.846 147.401 131.68 147.081 130.876 146.443C130.112 145.804 129.634 145.023 129.442 144.1L129.27 142.663C127.97 144.224 126.345 145.431 124.394 146.283C122.444 147.135 120.455 147.561 118.428 147.561C116.439 147.561 114.642 147.188 113.036 146.443C111.468 145.662 110.225 144.615 109.307 143.302C108.427 141.953 107.987 140.444 107.987 138.776ZM126.689 140.214C127.109 139.788 127.454 139.362 127.721 138.936C127.989 138.51 128.123 138.12 128.123 137.765V134.943C127.205 134.588 126.211 134.322 125.14 134.145C124.069 133.932 123.056 133.825 122.099 133.825C120.111 133.825 118.466 134.233 117.166 135.05C115.904 135.83 115.273 136.877 115.273 138.191C115.273 138.901 115.483 139.575 115.904 140.214C116.325 140.853 116.936 141.367 117.74 141.758C118.543 142.148 119.499 142.343 120.608 142.343C121.755 142.343 122.883 142.148 123.993 141.758C125.102 141.332 126 140.817 126.689 140.214Z" fill="url(#paint4_linear_209_1433)"/>
<path d="M106.045 145.593C105.395 145.841 104.611 146.125 103.693 146.445C102.775 146.764 101.781 147.012 100.71 147.19C99.6771 147.403 98.6254 147.509 97.5545 147.509C96.1395 147.509 94.8392 147.279 93.6536 146.817C92.468 146.356 91.5119 145.628 90.7853 144.634C90.0969 143.605 89.7527 142.274 89.7527 140.642V124.617H85.7944V119.133H89.7527V110.083H97.4398V119.133H103.75V124.617H97.4398V138.246C97.478 139.204 97.7649 139.896 98.3003 140.322C98.8357 140.748 99.505 140.961 100.308 140.961C101.111 140.961 101.895 140.837 102.66 140.588C103.425 140.34 104.037 140.127 104.496 139.95L106.045 145.593Z" fill="url(#paint5_linear_209_1433)"/>
<path d="M67.5677 147.561C65.1201 147.561 62.9211 147.188 60.9706 146.443C59.0201 145.662 57.3565 144.597 55.9797 143.248C54.6412 141.9 53.6086 140.356 52.882 138.617C52.1553 136.877 51.792 135.05 51.792 133.133C51.792 131.181 52.1553 129.335 52.882 127.596C53.6086 125.857 54.6412 124.313 55.9797 122.965C57.3565 121.616 59.0201 120.569 60.9706 119.824C62.9211 119.043 65.1201 118.652 67.5677 118.652C70.0154 118.652 72.1953 119.043 74.1075 119.824C76.0579 120.569 77.7216 121.616 79.0983 122.965C80.4751 124.313 81.5077 125.857 82.1961 127.596C82.9228 129.335 83.2861 131.181 83.2861 133.133C83.2861 135.05 82.9228 136.877 82.1961 138.617C81.5077 140.356 80.4751 141.9 79.0983 143.248C77.7598 144.597 76.1153 145.662 74.1648 146.443C72.2144 147.188 70.0154 147.561 67.5677 147.561ZM59.7085 133.133C59.7085 134.766 60.0527 136.221 60.7411 137.499C61.4295 138.741 62.3665 139.717 63.5521 140.427C64.7377 141.137 66.0762 141.491 67.5677 141.491C69.021 141.491 70.3404 141.137 71.526 140.427C72.7116 139.681 73.6486 138.688 74.3369 137.445C75.0636 136.168 75.4269 134.712 75.4269 133.08C75.4269 131.483 75.0636 130.045 74.3369 128.768C73.6486 127.49 72.7116 126.496 71.526 125.786C70.3404 125.076 69.021 124.721 67.5677 124.721C66.0762 124.721 64.7377 125.094 63.5521 125.839C62.3665 126.549 61.4295 127.543 60.7411 128.821C60.0527 130.063 59.7085 131.5 59.7085 133.133Z" fill="url(#paint6_linear_209_1433)"/>
<path d="M19.1006 122.748V147.025H11.1841V109.226H17.4944L38.5478 134.141V109.279H46.4644V147.025H39.8672L19.1006 122.748Z" fill="url(#paint7_linear_209_1433)"/>
<path d="M253.163 162.774C252.949 162.5 252.7 162.258 252.416 162.049C252.131 161.823 251.811 161.629 251.455 161.468C251.099 161.307 250.715 161.177 250.302 161.081C249.903 160.984 249.476 160.935 249.021 160.935C247.697 160.935 246.722 161.226 246.095 161.807C245.483 162.371 245.177 163.145 245.177 164.129C245.177 164.807 245.319 165.339 245.604 165.726C245.903 166.114 246.366 166.428 246.992 166.67C247.618 166.912 248.416 167.162 249.384 167.42C250.465 167.678 251.398 167.985 252.181 168.34C252.964 168.695 253.569 169.178 253.996 169.791C254.423 170.388 254.636 171.203 254.636 172.235C254.636 173.026 254.501 173.711 254.231 174.292C253.96 174.873 253.583 175.357 253.099 175.744C252.615 176.131 252.038 176.421 251.369 176.615C250.7 176.792 249.967 176.881 249.17 176.881C248.387 176.881 247.633 176.792 246.907 176.615C246.195 176.421 245.519 176.147 244.878 175.792C244.238 175.421 243.64 174.953 243.084 174.389L243.832 173.01C244.102 173.332 244.423 173.639 244.793 173.929C245.177 174.203 245.597 174.453 246.053 174.679C246.522 174.905 247.021 175.082 247.547 175.211C248.088 175.324 248.643 175.381 249.213 175.381C250.423 175.381 251.362 175.131 252.031 174.631C252.715 174.131 253.056 173.389 253.056 172.405C253.056 171.695 252.885 171.13 252.544 170.711C252.202 170.275 251.69 169.92 251.006 169.646C250.323 169.372 249.483 169.106 248.487 168.848C247.433 168.574 246.544 168.267 245.818 167.928C245.092 167.59 244.544 167.146 244.173 166.597C243.818 166.033 243.64 165.291 243.64 164.371C243.64 163.307 243.867 162.411 244.323 161.686C244.793 160.944 245.433 160.387 246.245 160.016C247.056 159.629 247.989 159.435 249.042 159.435C249.711 159.435 250.33 159.516 250.9 159.677C251.483 159.822 252.017 160.04 252.501 160.331C252.999 160.621 253.462 160.984 253.889 161.419L253.163 162.774Z" fill="#61B1FD"/>
<path d="M232.243 176.857C231.176 176.857 230.208 176.615 229.339 176.131C228.471 175.647 227.724 174.994 227.097 174.171C226.471 173.332 225.987 172.397 225.645 171.364C225.304 170.316 225.133 169.243 225.133 168.146C225.133 167.001 225.311 165.912 225.667 164.88C226.023 163.831 226.521 162.903 227.161 162.097C227.816 161.274 228.578 160.629 229.446 160.161C230.314 159.677 231.254 159.435 232.265 159.435C233.332 159.435 234.3 159.685 235.169 160.185C236.037 160.685 236.777 161.355 237.389 162.194C238.016 163.033 238.5 163.968 238.841 165.001C239.183 166.033 239.354 167.089 239.354 168.17C239.354 169.316 239.176 170.412 238.82 171.461C238.464 172.493 237.966 173.421 237.325 174.244C236.685 175.05 235.93 175.687 235.062 176.155C234.194 176.623 233.254 176.857 232.243 176.857ZM226.628 168.146C226.628 169.082 226.763 169.985 227.033 170.856C227.304 171.711 227.688 172.477 228.186 173.155C228.685 173.816 229.275 174.348 229.959 174.752C230.656 175.139 231.418 175.332 232.243 175.332C233.112 175.332 233.887 175.131 234.571 174.728C235.268 174.308 235.859 173.76 236.343 173.082C236.841 172.389 237.218 171.614 237.475 170.759C237.731 169.904 237.859 169.033 237.859 168.146C237.859 167.21 237.724 166.315 237.453 165.46C237.183 164.605 236.791 163.839 236.279 163.162C235.781 162.484 235.19 161.952 234.507 161.565C233.823 161.177 233.069 160.984 232.243 160.984C231.389 160.984 230.613 161.186 229.916 161.589C229.233 161.992 228.642 162.541 228.144 163.234C227.66 163.912 227.282 164.678 227.012 165.533C226.756 166.388 226.628 167.259 226.628 168.146Z" fill="#61B1FD"/>
<path d="M222.257 161.054H216.854V176.734H215.36V161.054H209.958V159.554H222.257V161.054Z" fill="#61B1FD"/>
<path d="M194.349 162.676V176.734H192.854V159.554H194.093L204.043 173.879V159.578H205.538V176.734H204.15L194.349 162.676Z" fill="#61B1FD"/>
<path d="M180.788 176.855C179.593 176.855 178.582 176.613 177.756 176.129C176.931 175.645 176.276 175 175.792 174.193C175.308 173.37 174.952 172.443 174.724 171.411C174.511 170.378 174.404 169.313 174.404 168.217V159.554H175.877V168.217C175.877 169.104 175.955 169.975 176.112 170.83C176.283 171.685 176.553 172.451 176.923 173.128C177.294 173.806 177.792 174.346 178.418 174.75C179.044 175.137 179.827 175.33 180.767 175.33C181.735 175.33 182.532 175.129 183.158 174.725C183.799 174.306 184.297 173.758 184.653 173.08C185.023 172.403 185.287 171.644 185.443 170.806C185.6 169.951 185.678 169.088 185.678 168.217V159.554H187.173V168.217C187.173 169.362 187.059 170.459 186.831 171.507C186.603 172.556 186.233 173.475 185.721 174.266C185.223 175.056 184.568 175.685 183.756 176.153C182.945 176.621 181.956 176.855 180.788 176.855Z" fill="#61B1FD"/>
<path d="M161.02 174.58C161.319 174.822 161.71 175.032 162.194 175.209C162.692 175.387 163.262 175.476 163.902 175.476C164.643 175.476 165.241 175.338 165.696 175.064C166.152 174.774 166.5 174.346 166.742 173.782C166.984 173.201 167.148 172.483 167.233 171.628C167.319 170.773 167.362 169.773 167.362 168.628V159.554H168.856V168.289C168.856 169.58 168.799 170.757 168.685 171.822C168.572 172.887 168.351 173.806 168.024 174.58C167.696 175.355 167.205 175.951 166.55 176.371C165.895 176.79 165.027 177 163.945 177C163.248 177 162.628 176.911 162.087 176.734C161.547 176.556 161.048 176.29 160.593 175.935L161.02 174.58Z" fill="#61B1FD"/>
<path d="M139.112 176.734V159.554H145.518C146.172 159.554 146.77 159.707 147.311 160.014C147.852 160.32 148.322 160.74 148.721 161.272C149.133 161.788 149.447 162.369 149.66 163.014C149.888 163.643 150.002 164.289 150.002 164.95C150.002 165.773 149.859 166.547 149.575 167.273C149.304 167.999 148.913 168.612 148.4 169.112C147.902 169.612 147.311 169.943 146.628 170.104L150.343 176.734H148.657L145.091 170.394H140.607V176.734H139.112ZM140.607 168.894H145.56C146.158 168.894 146.678 168.709 147.119 168.338C147.56 167.967 147.902 167.483 148.144 166.886C148.386 166.273 148.507 165.628 148.507 164.95C148.507 164.256 148.365 163.619 148.08 163.039C147.81 162.442 147.439 161.966 146.97 161.611C146.514 161.24 146.002 161.054 145.432 161.054H140.607V168.894Z" fill="#61B1FD"/>
<path d="M134.149 175.234V176.734H123.963V159.554H133.956V161.054H125.458V167.249H132.867V168.676H125.458V175.234H134.149Z" fill="#61B1FD"/>
<path d="M106.573 176.734V159.554H111.719C113.328 159.554 114.666 159.941 115.734 160.716C116.815 161.474 117.627 162.506 118.168 163.813C118.709 165.103 118.979 166.539 118.979 168.12C118.979 169.862 118.68 171.378 118.082 172.669C117.499 173.959 116.659 174.959 115.563 175.669C114.481 176.379 113.2 176.734 111.719 176.734H106.573ZM117.485 168.12C117.485 166.749 117.257 165.531 116.801 164.466C116.36 163.401 115.712 162.571 114.858 161.974C114.004 161.361 112.958 161.054 111.719 161.054H108.068V175.234H111.719C112.972 175.234 114.025 174.919 114.879 174.29C115.734 173.661 116.381 172.814 116.823 171.749C117.264 170.668 117.485 169.459 117.485 168.12Z" fill="#61B1FD"/>
<path d="M89.4288 162.676V176.734H87.9341V159.554H89.1725L99.1229 173.879V159.578H100.618V176.734H99.2297L89.4288 162.676Z" fill="#61B1FD"/>
<path d="M82.9699 175.234V176.734H72.7847V159.554H82.7778V161.054H74.2794V167.249H81.6888V168.676H74.2794V175.234H82.9699Z" fill="#61B1FD"/>
<path d="M56.7075 176.734V159.554H63.1134C63.7682 159.554 64.3661 159.707 64.907 160.014C65.4479 160.32 65.9177 160.74 66.3163 161.272C66.7291 161.788 67.0423 162.369 67.2558 163.014C67.4836 163.643 67.5974 164.289 67.5974 164.95C67.5974 165.773 67.4551 166.547 67.1704 167.273C66.8999 167.999 66.5084 168.612 65.996 169.112C65.4977 169.612 64.907 169.943 64.2237 170.104L67.9391 176.734H66.2522L62.6863 170.394H58.2022V176.734H56.7075ZM58.2022 168.894H63.1561C63.7539 168.894 64.2735 168.709 64.7148 168.338C65.1561 167.967 65.4977 167.483 65.7397 166.886C65.9817 166.273 66.1027 165.628 66.1027 164.95C66.1027 164.256 65.9604 163.619 65.6757 163.039C65.4052 162.442 65.0351 161.966 64.5653 161.611C64.1098 161.24 63.5973 161.054 63.0279 161.054H58.2022V168.894Z" fill="#61B1FD"/>
<path d="M41.2822 176.734V159.554H47.5599C48.2148 159.554 48.8126 159.707 49.3536 160.014C49.9088 160.32 50.3856 160.74 50.7842 161.272C51.1828 161.788 51.496 162.369 51.7237 163.014C51.9515 163.643 52.0654 164.289 52.0654 164.95C52.0654 165.886 51.8803 166.773 51.5102 167.612C51.1543 168.434 50.649 169.104 49.9942 169.62C49.3393 170.136 48.5706 170.394 47.6881 170.394H42.7769V176.734H41.2822ZM42.7769 168.894H47.624C48.2219 168.894 48.7415 168.709 49.1828 168.338C49.624 167.967 49.9657 167.483 50.2077 166.886C50.4497 166.289 50.5707 165.644 50.5707 164.95C50.5707 164.24 50.4283 163.587 50.1436 162.99C49.8589 162.393 49.4817 161.925 49.0119 161.587C48.5564 161.232 48.0511 161.054 47.4959 161.054H42.7769V168.894Z" fill="#61B1FD"/>
<path d="M29.4223 159.554H30.6822L36.9812 176.734H35.4011L33.4367 171.362H26.6251L24.682 176.734H23.0806L29.4223 159.554ZM33.095 170.031L30.0416 161.538L26.9454 170.031H33.095Z" fill="#61B1FD"/>
<path d="M129.61 17.3581C131.924 16.0894 135.628 14.6516 137.942 14.0595C140.349 13.3829 144.793 13.1292 148.589 13.3829C153.218 13.6366 156.644 14.4824 160.625 16.2586C163.68 17.6119 167.846 20.403 169.791 22.4329C171.827 24.3782 174.512 28.1843 175.808 30.7217C177.012 33.2591 178.216 37.6572 178.493 40.4483C178.771 43.2395 178.493 47.4684 177.845 49.7521C177.197 52.1203 174.049 58.8867 170.716 64.9764C167.106 71.7428 164.328 78.0862 162.384 86.9671L146.46 87.2208C130.721 87.39 130.536 87.39 129.702 85.5292C129.332 84.4297 128.684 81.8923 128.406 79.7778C128.036 77.6633 125.351 71.6582 122.388 66.2451C119.426 60.9166 116.185 54.404 115.259 51.8666C114.056 48.3988 113.686 45.5231 114.056 40.8712C114.334 37.2343 115.259 32.9208 116.278 30.7217C117.296 28.6072 119.796 25.224 121.833 23.1941C123.777 21.1642 127.295 18.5422 129.61 17.3581Z" fill="#85C226"/>
<path d="M146.275 91.6189C134.517 91.6189 132.387 91.4498 132.387 90.3503C132.387 89.2507 134.517 89.0816 146.275 89.0816C158.033 89.0816 160.162 89.2507 160.162 90.3503C160.162 91.4498 158.033 91.6189 146.275 91.6189Z" fill="#85C226"/>
<path d="M146.275 96.6937C134.517 96.6937 132.387 96.5246 132.387 95.425C132.387 94.3255 134.517 94.1563 146.275 94.1563C158.033 94.1563 160.162 94.3255 160.162 95.425C160.162 96.5246 158.033 96.6937 146.275 96.6937Z" fill="#85C226"/>
<path d="M135.35 102.022C134.331 100.077 134.331 99.5694 135.35 99.062C135.998 98.7236 141.275 98.3853 146.923 98.3853C153.033 98.3853 157.57 98.7236 157.847 99.2311C158.125 99.7386 158.125 100.838 157.847 101.768C157.57 102.699 155.903 104.052 154.144 104.729C152.385 105.405 149.145 105.997 147.015 105.997C144.793 105.997 141.553 105.659 139.794 105.152C137.634 104.644 136.152 103.601 135.35 102.022Z" fill="#85C226"/>
<path d="M129.73 19.234C131.459 18.2959 134.554 16.9313 136.556 16.3343C138.559 15.7374 143.11 15.3109 146.569 15.4815C151.12 15.6521 154.397 16.3343 157.947 17.9547C160.677 19.234 164.5 21.7925 166.412 23.6688C168.232 25.6303 170.69 28.7858 171.782 30.8326C173.056 33.2205 173.876 36.6319 174.149 40.8108C174.513 45.5014 174.149 48.4011 172.965 51.8977C172.055 54.4562 169.598 59.6585 167.413 63.411C165.228 67.1635 162.68 72.3658 159.949 79.6149H130.367L128.82 75.3508C127.909 73.0481 124.815 66.7371 121.902 61.3642C116.805 52.0683 116.532 51.2154 116.167 44.3074C115.894 37.7406 116.076 36.4613 118.261 31.856C119.626 29.0416 121.993 25.4597 123.631 23.9246C125.27 22.3895 128 20.2574 129.73 19.234Z" fill="#0D0F3F"/>
<path d="M145.204 84.3056C136.101 84.3056 130.64 83.9644 130.64 83.4527C130.64 82.941 136.101 82.5999 145.204 82.5999C154.306 82.5999 159.767 82.941 159.767 83.4527C159.767 83.9644 154.306 84.3056 145.204 84.3056Z" fill="#0D0F3F"/>
<path d="M146.023 103.75C141.654 104.006 139.833 103.75 138.832 102.727C137.649 101.448 138.195 101.362 145.022 101.362C150.574 101.362 152.394 101.618 152.212 102.386C152.03 103.068 149.755 103.58 146.023 103.75Z" fill="#0D0F3F"/>
<path d="M130.662 39.6232C130.391 38.7694 130.391 37.3722 130.752 36.5184C131.023 35.6646 132.016 34.9661 133.009 34.9661C134.092 34.9661 134.904 35.6646 135.175 36.9065C135.446 37.9932 135.085 39.3903 134.543 40.0113C133.911 40.7098 132.828 41.2532 132.287 41.1756C131.655 41.1756 130.933 40.477 130.662 39.6232Z" fill="#85C226"/>
<path d="M156.659 40.0113C156.027 39.3903 155.666 37.9932 155.937 36.9065C156.238 35.6129 156.99 34.9661 158.194 34.9661C159.277 34.9661 160.18 35.587 160.451 36.5184C160.721 37.3722 160.721 38.7694 160.451 39.6232C160.18 40.477 159.458 41.1756 158.916 41.1756C158.284 41.2532 157.201 40.7098 156.659 40.0113Z" fill="#85C226"/>
<path d="M131.835 48.3941C130.933 46.9969 130.391 45.2893 130.662 44.6684C131.023 43.6593 133.46 43.5041 145.556 43.5041C157.562 43.5041 160.09 43.6593 160.451 44.6684C160.721 45.2893 160.18 46.9969 159.277 48.3941C158.374 49.8688 156.027 51.5764 153.68 52.6631C151.243 53.6721 147.993 54.3707 145.556 54.3707C143.119 54.3707 139.869 53.6721 137.432 52.6631C135.085 51.5764 132.738 49.8688 131.835 48.3941Z" fill="#85C226"/>
<rect x="1.20166" y="0.5" width="280.105" height="188.501" rx="3.5" stroke="#0D0F3F"/>
<defs>
<linearGradient id="paint0_linear_209_1433" x1="257.204" y1="118.596" x2="257.204" y2="147.557" gradientUnits="userSpaceOnUse">
<stop stop-color="#E11282"/>
<stop offset="1" stop-color="#7B0A47"/>
</linearGradient>
<linearGradient id="paint1_linear_209_1433" x1="226.019" y1="119.134" x2="226.019" y2="147.563" gradientUnits="userSpaceOnUse">
<stop stop-color="#E11282"/>
<stop offset="1" stop-color="#7B0A47"/>
</linearGradient>
<linearGradient id="paint2_linear_209_1433" x1="200.526" y1="108.169" x2="200.526" y2="147.459" gradientUnits="userSpaceOnUse">
<stop stop-color="#E11282"/>
<stop offset="1" stop-color="#7B0A47"/>
</linearGradient>
<linearGradient id="paint3_linear_209_1433" x1="172.339" y1="118.652" x2="172.339" y2="158.368" gradientUnits="userSpaceOnUse">
<stop stop-color="#E11282"/>
<stop offset="1" stop-color="#7B0A47"/>
</linearGradient>
<linearGradient id="paint4_linear_209_1433" x1="122.816" y1="118.652" x2="122.816" y2="147.561" gradientUnits="userSpaceOnUse">
<stop stop-color="#E11282"/>
<stop offset="1" stop-color="#7B0A47"/>
</linearGradient>
<linearGradient id="paint5_linear_209_1433" x1="95.9196" y1="110.083" x2="95.9196" y2="147.509" gradientUnits="userSpaceOnUse">
<stop stop-color="#E11282"/>
<stop offset="1" stop-color="#7B0A47"/>
</linearGradient>
<linearGradient id="paint6_linear_209_1433" x1="67.539" y1="118.652" x2="67.539" y2="147.561" gradientUnits="userSpaceOnUse">
<stop stop-color="#E11282"/>
<stop offset="1" stop-color="#7B0A47"/>
</linearGradient>
<linearGradient id="paint7_linear_209_1433" x1="28.8242" y1="109.226" x2="28.8242" y2="147.025" gradientUnits="userSpaceOnUse">
<stop stop-color="#E11282"/>
<stop offset="1" stop-color="#7B0A47"/>
</linearGradient>
</defs>
</svg>
